<?xml version="1.0" encoding="UTF-8"?>
<!DOCTYPE svg PUBLIC "-//W3C//DTD SVG 1.1//EN" "http://www.w3.org/Graphics/SVG/1.1/DTD/svg11.dtd">
<svg xmlns="http://www.w3.org/2000/svg" version="1.1" width="1024px" height="1024px" style="shape-rendering:geometricPrecision; text-rendering:geometricPrecision; image-rendering:optimizeQuality; fill-rule:evenodd; clip-rule:evenodd" xmlns:xlink="http://www.w3.org/1999/xlink">
<g><path style="opacity:0.973" fill="#f7fdfc" d="M 477.5,147.5 C 504.252,146.92 530.919,147.754 557.5,150C 686.161,169.81 784.661,235.643 853,347.5C 866.174,373.355 877.508,400.022 887,427.5C 892.018,446.908 895.518,466.742 897.5,487C 897.853,492.769 897.019,498.269 895,503.5C 891.973,505.86 889.306,508.527 887,511.5C 884.053,527.781 884.053,544.114 887,560.5C 888.41,562.884 890.41,564.55 893,565.5C 894.162,567.824 895.329,570.158 896.5,572.5C 897.665,581.816 897.832,591.149 897,600.5C 885.102,679.534 851.935,748.867 797.5,808.5C 739.727,868.158 670.56,906.825 590,924.5C 588.026,924.353 586.026,924.019 584,923.5C 583.097,924.701 581.931,925.535 580.5,926C 477.235,942.629 381.568,922.796 293.5,866.5C 202.98,803.899 147.147,718.899 126,611.5C 125.749,602.17 124.915,593.003 123.5,584C 123.696,579.04 124.53,574.207 126,569.5C 129.175,565.992 132.675,562.825 136.5,560C 134.219,558.518 134.219,556.851 136.5,555C 136.117,540.412 136.117,525.245 136.5,509.5C 130.365,508.206 126.199,504.539 124,498.5C 123.333,491.5 123.333,484.5 124,477.5C 126.749,461.068 130.082,444.735 134,428.5C 166.479,328.392 228.312,251.559 319.5,198C 342.394,186.774 365.728,176.441 389.5,167C 403.801,162.612 418.134,158.612 432.5,155C 447.781,153.172 462.781,150.672 477.5,147.5 Z"/></g>
<g><path style="opacity:1" fill="#135d6a" d="M 479.5,151.5 C 595.183,145.661 695.183,181.827 779.5,260C 844.927,322.853 883.594,399.519 895.5,490C 892.399,506.218 883.066,511.551 867.5,506C 864.168,503.509 861.668,500.342 860,496.5C 853.723,442.298 835.389,392.631 805,347.5C 746.361,264.558 666.861,213.392 566.5,194C 505.869,183.62 446.869,189.62 389.5,212C 284.957,252.954 213.457,326.121 175,431.5C 168.413,452.018 164.08,473.018 162,494.5C 157.698,507.053 149.198,511.219 136.5,507C 131.853,504.894 128.686,501.394 127,496.5C 126.316,488.13 126.649,479.797 128,471.5C 148.858,368.564 201.358,286.064 285.5,224C 344.061,183.535 408.727,159.368 479.5,151.5 Z"/></g>
<g><path style="opacity:1" fill="#135d6a" d="M 509.5,217.5 C 516.297,217.982 521.13,221.315 524,227.5C 524.191,233.083 524.691,238.583 525.5,244C 629.003,253.985 711.169,300.819 772,384.5C 786.146,404.695 797.813,426.361 807,449.5C 809.247,454.637 809.914,459.97 809,465.5C 805.026,471.046 799.86,472.546 793.5,470C 789.628,463.734 786.128,457.234 783,450.5C 760.009,426.276 733.509,421.776 703.5,437C 692.928,443.573 684.762,452.406 679,463.5C 676.022,471.42 673.355,479.42 671,487.5C 666.522,491.935 661.522,492.602 656,489.5C 647.8,448.003 622.633,427.17 580.5,427C 550.721,429.117 532.221,444.617 525,473.5C 524.5,493.164 524.333,512.831 524.5,532.5C 582.999,531.912 641.499,531.578 700,531.5C 708.226,531.399 716.392,531.899 724.5,533C 739.084,541.438 742.584,553.271 735,568.5C 731.687,572.815 727.521,575.982 722.5,578C 711.172,578.5 699.838,578.667 688.5,578.5C 688.579,579.93 688.246,581.264 687.5,582.5C 675.518,583.499 663.518,583.832 651.5,583.5C 651.5,581.833 651.5,580.167 651.5,578.5C 609.167,578.5 566.833,578.5 524.5,578.5C 524.5,580.167 524.5,581.833 524.5,583.5C 515.5,583.5 506.5,583.5 497.5,583.5C 497.5,581.833 497.5,580.167 497.5,578.5C 454.833,578.5 412.167,578.5 369.5,578.5C 369.5,580.167 369.5,581.833 369.5,583.5C 358.177,584.388 346.844,584.555 335.5,584C 333.996,582.663 332.996,580.996 332.5,579C 321.833,578.667 311.167,578.333 300.5,578C 285.672,572.515 280.172,562.015 284,546.5C 287.248,537.916 293.415,533.083 302.5,532C 367.061,531.568 431.561,531.735 496,532.5C 497.142,523.096 497.642,513.596 497.5,504C 499.692,486.239 496.859,469.406 489,453.5C 474.302,433.477 454.469,424.644 429.5,427C 394.703,432.13 373.87,451.963 367,486.5C 361.631,492.698 355.964,493.032 350,487.5C 341.809,445.997 316.642,426.497 274.5,429C 252.602,432.897 238.102,445.397 231,466.5C 224.555,473.408 218.555,473.074 213,465.5C 211.907,458.527 212.907,451.861 216,445.5C 240.494,388.992 277.66,342.492 327.5,306C 378.002,269.994 434.335,249.494 496.5,244.5C 496.261,238.435 496.761,232.435 498,226.5C 500.593,221.721 504.427,218.721 509.5,217.5 Z"/></g>
<g><path style="opacity:0.973" fill="#f7fdfc" d="M 508.5,270.5 C 510.144,270.286 511.644,270.62 513,271.5C 514.761,277.4 516.095,283.4 517,289.5C 519.612,313.93 521.112,338.43 521.5,363C 521.265,370.256 520.432,377.423 519,384.5C 511.755,390.596 505.755,389.596 501,381.5C 500.562,349.926 501.895,318.259 505,286.5C 506.172,281.146 507.339,275.813 508.5,270.5 Z"/></g>
<g><path style="opacity:0.973" fill="#f7fdfc" d="M 543.5,273.5 C 554.068,273.774 564.401,276.107 574.5,280.5C 610.489,305.676 636.823,338.51 653.5,379C 651.105,388.404 645.605,390.904 637,386.5C 618.808,346.284 592.974,311.784 559.5,283C 554.304,279.57 548.971,276.403 543.5,273.5 Z"/></g>
<g><path style="opacity:0.973" fill="#f7fdfc" d="M 472.5,273.5 C 474.199,273.34 475.866,273.506 477.5,274C 456.592,286.234 438.758,302.067 424,321.5C 408.858,342.277 395.358,364.11 383.5,387C 375.271,389.946 370.271,387.113 368.5,378.5C 382.487,346.676 402.153,318.842 427.5,295C 434.5,290 441.5,285 448.5,280C 456.428,277.122 464.428,274.956 472.5,273.5 Z"/></g>
<g><path style="opacity:1" fill="#135d6a" d="M 347.5,509.5 C 355.297,509.151 361.797,511.818 367,517.5C 368.513,520.024 369.18,522.691 369,525.5C 357.043,525.541 344.876,525.541 332.5,525.5C 334.081,516.92 339.081,511.587 347.5,509.5 Z"/></g>
<g><path style="opacity:1" fill="#135d6a" d="M 668.5,509.5 C 673.373,509.841 678.04,511.008 682.5,513C 686.524,516.213 688.524,520.38 688.5,525.5C 676.167,525.5 663.833,525.5 651.5,525.5C 653.31,516.022 658.976,510.689 668.5,509.5 Z"/></g>
<g><path style="opacity:1" fill="#135d6a" d="M 223.5,557.5 C 224.458,557.953 225.292,558.619 226,559.5C 230,567.5 234,575.5 238,583.5C 241.431,589.781 242.765,596.448 242,603.5C 234.673,618.358 223.839,621.524 209.5,613C 203.016,605.658 201.849,597.491 206,588.5C 210.667,579.167 215.333,569.833 220,560.5C 221.145,559.364 222.312,558.364 223.5,557.5 Z"/></g>
<g><path style="opacity:1" fill="#135d6a" d="M 797.5,557.5 C 799.371,557.859 800.871,558.859 802,560.5C 807,570.833 812,581.167 817,591.5C 820.143,607.04 813.81,616.04 798,618.5C 780.42,614.006 775.086,603.339 782,586.5C 787.028,576.671 792.194,567.004 797.5,557.5 Z"/></g>
<g><path style="opacity:1" fill="#135d6a" d="M 140.5,563.5 C 148.531,563.096 154.365,566.429 158,573.5C 165.508,633.705 185.841,689.038 219,739.5C 221.713,743.092 224.547,746.592 227.5,750C 262.498,750.5 297.498,750.667 332.5,750.5C 332.5,741.833 332.5,733.167 332.5,724.5C 319.163,724.667 305.829,724.5 292.5,724C 279.452,722.948 271.285,716.115 268,703.5C 267.333,698.167 267.333,692.833 268,687.5C 269.833,681 274,676.833 280.5,675C 433.833,674.333 587.167,674.333 740.5,675C 747.835,677.67 752.335,682.837 754,690.5C 756.243,708.9 748.41,720.067 730.5,724C 716.504,724.5 702.504,724.667 688.5,724.5C 688.5,733.167 688.5,741.833 688.5,750.5C 723.835,750.667 759.168,750.5 794.5,750C 831.893,698.514 854.393,641.014 862,577.5C 865.971,566.098 873.804,561.931 885.5,565C 892.748,569.254 896.082,575.588 895.5,584C 886.665,669.932 853.165,744.432 795,807.5C 723.452,880.679 636.285,921.179 533.5,929C 426.43,932.87 332.43,900.203 251.5,831C 192.163,776.524 152.663,710.024 133,631.5C 128.652,613.402 126.652,595.069 127,576.5C 129.417,569.915 133.917,565.582 140.5,563.5 Z"/></g>
<g><path style="opacity:1" fill="#135d6a" d="M 298.5,590.5 C 440.001,590.396 581.334,590.562 722.5,591C 733.291,593.796 738.958,600.796 739.5,612C 738.733,624.431 732.399,632.431 720.5,636C 709.839,636.5 699.172,636.667 688.5,636.5C 688.5,646.5 688.5,656.5 688.5,666.5C 676.167,666.5 663.833,666.5 651.5,666.5C 651.819,656.584 651.486,646.75 650.5,637C 608.501,636.5 566.501,636.333 524.5,636.5C 524.758,646.539 524.424,656.539 523.5,666.5C 514.833,666.5 506.167,666.5 497.5,666.5C 497.5,656.5 497.5,646.5 497.5,636.5C 454.833,636.5 412.167,636.5 369.5,636.5C 369.553,646.512 369.887,656.512 370.5,666.5C 357.833,666.5 345.167,666.5 332.5,666.5C 332.5,656.5 332.5,646.5 332.5,636.5C 322.161,636.666 311.828,636.5 301.5,636C 285.762,630.576 279.929,619.743 284,603.5C 286.584,596.487 291.417,592.154 298.5,590.5 Z"/></g>
<g><path style="opacity:0.973" fill="#f7fdfc" d="M 575.5,723.5 C 600.398,724.657 625.231,724.657 650,723.5C 651.488,744.015 651.988,764.682 651.5,785.5C 642.161,785.334 632.827,785.5 623.5,786C 615.706,785.299 611.373,788.799 610.5,796.5C 610.881,801.77 613.548,805.27 618.5,807C 660.342,807.513 702.009,807.513 743.5,807C 732.736,816.433 721.403,825.1 709.5,833C 683.5,833.333 657.5,833.667 631.5,834C 564.317,867.684 494.984,872.684 423.5,849C 411.717,844.275 400.051,839.275 388.5,834C 363.167,833.667 337.833,833.333 312.5,833C 300.932,825.435 289.932,817.101 279.5,808C 320.5,807.667 361.5,807.333 402.5,807C 409.723,804.006 411.89,798.839 409,791.5C 404.562,786.461 398.896,784.461 392,785.5C 384.842,786.064 377.675,786.397 370.5,786.5C 370.219,766.117 370.219,745.784 370.5,725.5C 412.828,724.5 455.161,724.167 497.5,724.5C 497.667,744.836 497.5,765.169 497,785.5C 496.677,796.571 491.51,799.905 481.5,795.5C 478.227,790.922 477.561,785.922 479.5,780.5C 478.041,769.198 471.708,764.031 460.5,765C 455.572,766.927 452.406,770.427 451,775.5C 447.166,793.033 451.999,807.533 465.5,819C 484.418,829.529 501.252,827.029 516,811.5C 521.433,804.44 524.1,796.44 524,787.5C 524.5,766.503 524.667,745.503 524.5,724.5C 541.675,724.83 558.675,724.497 575.5,723.5 Z"/></g>
</svg>
