<?xml version="1.0" encoding="UTF-8" standalone="no"?>
<svg
   version="1.1"
   width="3781.6572"
   height="784.36639"
   style="clip-rule:evenodd;fill-rule:evenodd;image-rendering:optimizeQuality;shape-rendering:geometricPrecision;text-rendering:geometricPrecision"
   id="svg54"
   sodipodi:docname="logo-full.svg"
   inkscape:export-filename="logo-full.png"
   inkscape:export-xdpi="96"
   inkscape:export-ydpi="96"
   inkscape:version="1.2.2 (732a01da63, 2022-12-09)"
   xmlns:inkscape="http://www.inkscape.org/namespaces/inkscape"
   xmlns:sodipodi="http://sodipodi.sourceforge.net/DTD/sodipodi-0.dtd"
   xmlns="http://www.w3.org/2000/svg"
   xmlns:svg="http://www.w3.org/2000/svg">
  <defs
     id="defs58">
    <inkscape:path-effect
       effect="powerclip"
       id="path-effect164"
       is_visible="true"
       lpeversion="1"
       inverse="true"
       flatten="false"
       hide_clip="false"
       message="Use fill-rule evenodd on &lt;b&gt;fill and stroke&lt;/b&gt; dialog if no flatten result after convert clip to paths." />
    <inkscape:path-effect
       effect="powerclip"
       id="path-effect236"
       is_visible="true"
       lpeversion="1"
       inverse="true"
       flatten="false"
       hide_clip="false"
       message="Use fill-rule evenodd on &lt;b&gt;fill and stroke&lt;/b&gt; dialog if no flatten result after convert clip to paths." />
    <clipPath
       clipPathUnits="userSpaceOnUse"
       id="clipPath230">
      <g
         id="g234"
         style="display:none">
        <path
           style="opacity:0.973"
           fill="#f7fdfc"
           d="m 575.5,723.5 c 24.898,1.157 49.731,1.157 74.5,0 1.488,20.515 1.988,41.182 1.5,62 -9.339,-0.166 -18.673,0 -28,0.5 -7.794,-0.701 -12.127,2.799 -13,10.5 0.381,5.27 3.048,8.77 8,10.5 41.842,0.513 83.509,0.513 125,0 -10.764,9.433 -22.097,18.1 -34,26 -26,0.333 -52,0.667 -78,1 -67.183,33.684 -136.516,38.684 -208,15 -11.783,-4.725 -23.449,-9.725 -35,-15 -25.333,-0.333 -50.667,-0.667 -76,-1 -11.568,-7.565 -22.568,-15.899 -33,-25 41,-0.333 82,-0.667 123,-1 7.223,-2.994 9.39,-8.161 6.5,-15.5 -4.438,-5.039 -10.104,-7.039 -17,-6 -7.158,0.564 -14.325,0.897 -21.5,1 -0.281,-20.383 -0.281,-40.716 0,-61 42.328,-1 84.661,-1.333 127,-1 0.167,20.336 0,40.669 -0.5,61 -0.323,11.071 -5.49,14.405 -15.5,10 -3.273,-4.578 -3.939,-9.578 -2,-15 -1.459,-11.302 -7.792,-16.469 -19,-15.5 -4.928,1.927 -8.094,5.427 -9.5,10.5 -3.834,17.533 0.999,32.033 14.5,43.5 18.918,10.529 35.752,8.029 50.5,-7.5 5.433,-7.06 8.1,-15.06 8,-24 0.5,-20.997 0.667,-41.997 0.5,-63 17.175,0.33 34.175,-0.003 51,-1 z"
           id="path232" />
      </g>
      <path
         id="lpe_path-effect236"
         class="powerclip"
         d="M 121.96132,558.46724 H 900.56487 V 934.30743 H 121.96132 Z M 575.5,723.5 c -16.825,0.997 -33.825,1.33 -51,1 0.167,21.003 0,42.003 -0.5,63 0.1,8.94 -2.567,16.94 -8,24 -14.748,15.529 -31.582,18.029 -50.5,7.5 -13.501,-11.467 -18.334,-25.967 -14.5,-43.5 1.406,-5.073 4.572,-8.573 9.5,-10.5 11.208,-0.969 17.541,4.198 19,15.5 -1.939,5.422 -1.273,10.422 2,15 10.01,4.405 15.177,1.071 15.5,-10 0.5,-20.331 0.667,-40.664 0.5,-61 -42.339,-0.333 -84.672,0 -127,1 -0.281,20.284 -0.281,40.617 0,61 7.175,-0.103 14.342,-0.436 21.5,-1 6.896,-1.039 12.562,0.961 17,6 2.89,7.339 0.723,12.506 -6.5,15.5 -41,0.333 -82,0.667 -123,1 10.432,9.101 21.432,17.435 33,25 25.333,0.333 50.667,0.667 76,1 11.551,5.275 23.217,10.275 35,15 71.484,23.684 140.817,18.684 208,-15 26,-0.333 52,-0.667 78,-1 11.903,-7.9 23.236,-16.567 34,-26 -41.491,0.513 -83.158,0.513 -125,0 -4.952,-1.73 -7.619,-5.23 -8,-10.5 0.873,-7.701 5.206,-11.201 13,-10.5 9.327,-0.5 18.661,-0.666 28,-0.5 0.488,-20.818 -0.012,-41.485 -1.5,-62 -24.769,1.157 -49.602,1.157 -74.5,0 z" />
    </clipPath>
    <clipPath
       clipPathUnits="userSpaceOnUse"
       id="clipPath150">
      <g
         id="g162"
         transform="translate(-1881.3527,147.32155)"
         style="display:none">
        <g
           id="g154"
           transform="translate(1881.3527,-147.32155)">
          <path
             style="opacity:0.973"
             fill="#f7fdfc"
             d="m 508.5,270.5 c 1.644,-0.214 3.144,0.12 4.5,1 1.761,5.9 3.095,11.9 4,18 2.612,24.43 4.112,48.93 4.5,73.5 -0.235,7.256 -1.068,14.423 -2.5,21.5 -7.245,6.096 -13.245,5.096 -18,-3 -0.438,-31.574 0.895,-63.241 4,-95 1.172,-5.354 2.339,-10.687 3.5,-16 z"
             id="path152" />
        </g>
        <path
           style="clip-rule:evenodd;opacity:0.973;fill-rule:evenodd;image-rendering:optimizeQuality;shape-rendering:geometricPrecision;text-rendering:geometricPrecision"
           fill="#f7fdfc"
           d="m 543.5,273.5 c 10.568,0.274 20.901,2.607 31,7 35.989,25.176 62.323,58.01 79,98.5 -2.395,9.404 -7.895,11.904 -16.5,7.5 -18.192,-40.216 -44.026,-74.716 -77.5,-103.5 -5.196,-3.43 -10.529,-6.597 -16,-9.5 z"
           id="path156"
           transform="translate(1881.3527,-147.32155)" />
        <g
           id="g160"
           transform="translate(1881.3527,-147.32155)">
          <path
             style="opacity:0.973"
             fill="#f7fdfc"
             d="m 472.5,273.5 c 1.699,-0.16 3.366,0.006 5,0.5 -20.908,12.234 -38.742,28.067 -53.5,47.5 -15.142,20.777 -28.642,42.61 -40.5,65.5 -8.229,2.946 -13.229,0.113 -15,-8.5 13.987,-31.824 33.653,-59.658 59,-83.5 7,-5 14,-10 21,-15 7.928,-2.878 15.928,-5.044 24,-6.5 z"
             id="path158" />
        </g>
      </g>
      <path
         id="lpe_path-effect164"
         class="powerclip"
         d="M 207.57191,212.5 H 814.39632 V 589.32003 H 207.57191 Z M 508.5,270.5 c -1.161,5.313 -2.328,10.646 -3.5,16 -3.105,31.759 -4.438,63.426 -4,95 4.755,8.096 10.755,9.096 18,3 1.432,-7.077 2.265,-14.244 2.5,-21.5 -0.388,-24.57 -1.888,-49.07 -4.5,-73.5 -0.905,-6.1 -2.239,-12.1 -4,-18 -1.356,-0.88 -2.856,-1.214 -4.5,-1 z m 35,3 c 5.471,2.903 10.804,6.07 16,9.5 33.474,28.784 59.308,63.284 77.5,103.5 8.605,4.404 14.105,1.904 16.5,-7.5 -16.677,-40.49 -43.011,-73.324 -79,-98.5 -10.099,-4.393 -20.432,-6.726 -31,-7 z m -71,0 c -8.072,1.456 -16.072,3.622 -24,6.5 -7,5 -14,10 -21,15 -25.347,23.842 -45.013,51.676 -59,83.5 1.771,8.613 6.771,11.446 15,8.5 11.858,-22.89 25.358,-44.723 40.5,-65.5 14.758,-19.433 32.592,-35.266 53.5,-47.5 -1.634,-0.494 -3.301,-0.66 -5,-0.5 z" />
    </clipPath>
  </defs>
  <sodipodi:namedview
     id="namedview56"
     pagecolor="#ffffff"
     bordercolor="#000000"
     borderopacity="0.25"
     inkscape:showpageshadow="2"
     inkscape:pageopacity="0.0"
     inkscape:pagecheckerboard="0"
     inkscape:deskcolor="#d1d1d1"
     showgrid="false"
     inkscape:zoom="0.6017596"
     inkscape:cx="2316.5397"
     inkscape:cy="494.38347"
     inkscape:window-width="1280"
     inkscape:window-height="778"
     inkscape:window-x="-6"
     inkscape:window-y="-6"
     inkscape:window-maximized="1"
     inkscape:current-layer="svg54" />
  <g
     id="g8"
     transform="translate(1881.3527,-147.32155)">
    <path
       style="opacity:1"
       fill="#135d6a"
       d="m 479.5,151.5 c 115.683,-5.839 215.683,30.327 300,108.5 65.427,62.853 104.094,139.519 116,230 -3.101,16.218 -12.434,21.551 -28,16 -3.332,-2.491 -5.832,-5.658 -7.5,-9.5 -6.277,-54.202 -24.611,-103.869 -55,-149 C 746.361,264.558 666.861,213.392 566.5,194 505.869,183.62 446.869,189.62 389.5,212 284.957,252.954 213.457,326.121 175,431.5 c -6.587,20.518 -10.92,41.518 -13,63 -4.302,12.553 -12.802,16.719 -25.5,12.5 -4.647,-2.106 -7.814,-5.606 -9.5,-10.5 -0.684,-8.37 -0.351,-16.703 1,-25 20.858,-102.936 73.358,-185.436 157.5,-247.5 58.561,-40.465 123.227,-64.632 194,-72.5 z"
       id="path6" />
  </g>
  <g
     id="g12"
     transform="translate(1881.3527,-147.32155)"
     clip-path="url(#clipPath150)"
     inkscape:path-effect="#path-effect164">
    <path
       style="opacity:1"
       fill="#135d6a"
       d="m 509.5,217.5 c 6.797,0.482 11.63,3.815 14.5,10 0.191,5.583 0.691,11.083 1.5,16.5 103.503,9.985 185.669,56.819 246.5,140.5 14.146,20.195 25.813,41.861 35,65 2.247,5.137 2.914,10.47 2,16 -3.974,5.546 -9.14,7.046 -15.5,4.5 -3.872,-6.266 -7.372,-12.766 -10.5,-19.5 -22.991,-24.224 -49.491,-28.724 -79.5,-13.5 -10.572,6.573 -18.738,15.406 -24.5,26.5 -2.978,7.92 -5.645,15.92 -8,24 -4.478,4.435 -9.478,5.102 -15,2 -8.2,-41.497 -33.367,-62.33 -75.5,-62.5 -29.779,2.117 -48.279,17.617 -55.5,46.5 -0.5,19.664 -0.667,39.331 -0.5,59 58.499,-0.588 116.999,-0.922 175.5,-1 8.226,-0.101 16.392,0.399 24.5,1.5 14.584,8.438 18.084,20.271 10.5,35.5 -3.313,4.315 -7.479,7.482 -12.5,9.5 -11.328,0.5 -22.662,0.667 -34,0.5 0.079,1.43 -0.254,2.764 -1,4 -11.982,0.999 -23.982,1.332 -36,1 0,-1.667 0,-3.333 0,-5 -42.333,0 -84.667,0 -127,0 0,1.667 0,3.333 0,5 -9,0 -18,0 -27,0 0,-1.667 0,-3.333 0,-5 -42.667,0 -85.333,0 -128,0 0,1.667 0,3.333 0,5 -11.323,0.888 -22.656,1.055 -34,0.5 -1.504,-1.337 -2.504,-3.004 -3,-5 -10.667,-0.333 -21.333,-0.667 -32,-1 -14.828,-5.485 -20.328,-15.985 -16.5,-31.5 3.248,-8.584 9.415,-13.417 18.5,-14.5 64.561,-0.432 129.061,-0.265 193.5,0.5 1.142,-9.404 1.642,-18.904 1.5,-28.5 2.192,-17.761 -0.641,-34.594 -8.5,-50.5 -14.698,-20.023 -34.531,-28.856 -59.5,-26.5 -34.797,5.13 -55.63,24.963 -62.5,59.5 -5.369,6.198 -11.036,6.532 -17,1 -8.191,-41.503 -33.358,-61.003 -75.5,-58.5 -21.898,3.897 -36.398,16.397 -43.5,37.5 -6.445,6.908 -12.445,6.574 -18,-1 -1.093,-6.973 -0.093,-13.639 3,-20 24.494,-56.508 61.66,-103.008 111.5,-139.5 50.502,-36.006 106.835,-56.506 169,-61.5 -0.239,-6.065 0.261,-12.065 1.5,-18 2.593,-4.779 6.427,-7.779 11.5,-9 z"
       id="path10"
       inkscape:original-d="m 509.5,217.5 c 6.797,0.482 11.63,3.815 14.5,10 0.191,5.583 0.691,11.083 1.5,16.5 103.503,9.985 185.669,56.819 246.5,140.5 14.146,20.195 25.813,41.861 35,65 2.247,5.137 2.914,10.47 2,16 -3.974,5.546 -9.14,7.046 -15.5,4.5 -3.872,-6.266 -7.372,-12.766 -10.5,-19.5 -22.991,-24.224 -49.491,-28.724 -79.5,-13.5 -10.572,6.573 -18.738,15.406 -24.5,26.5 -2.978,7.92 -5.645,15.92 -8,24 -4.478,4.435 -9.478,5.102 -15,2 -8.2,-41.497 -33.367,-62.33 -75.5,-62.5 -29.779,2.117 -48.279,17.617 -55.5,46.5 -0.5,19.664 -0.667,39.331 -0.5,59 58.499,-0.588 116.999,-0.922 175.5,-1 8.226,-0.101 16.392,0.399 24.5,1.5 14.584,8.438 18.084,20.271 10.5,35.5 -3.313,4.315 -7.479,7.482 -12.5,9.5 -11.328,0.5 -22.662,0.667 -34,0.5 0.079,1.43 -0.254,2.764 -1,4 -11.982,0.999 -23.982,1.332 -36,1 0,-1.667 0,-3.333 0,-5 -42.333,0 -84.667,0 -127,0 0,1.667 0,3.333 0,5 -9,0 -18,0 -27,0 0,-1.667 0,-3.333 0,-5 -42.667,0 -85.333,0 -128,0 0,1.667 0,3.333 0,5 -11.323,0.888 -22.656,1.055 -34,0.5 -1.504,-1.337 -2.504,-3.004 -3,-5 -10.667,-0.333 -21.333,-0.667 -32,-1 -14.828,-5.485 -20.328,-15.985 -16.5,-31.5 3.248,-8.584 9.415,-13.417 18.5,-14.5 64.561,-0.432 129.061,-0.265 193.5,0.5 1.142,-9.404 1.642,-18.904 1.5,-28.5 2.192,-17.761 -0.641,-34.594 -8.5,-50.5 -14.698,-20.023 -34.531,-28.856 -59.5,-26.5 -34.797,5.13 -55.63,24.963 -62.5,59.5 -5.369,6.198 -11.036,6.532 -17,1 -8.191,-41.503 -33.358,-61.003 -75.5,-58.5 -21.898,3.897 -36.398,16.397 -43.5,37.5 -6.445,6.908 -12.445,6.574 -18,-1 -1.093,-6.973 -0.093,-13.639 3,-20 24.494,-56.508 61.66,-103.008 111.5,-139.5 50.502,-36.006 106.835,-56.506 169,-61.5 -0.239,-6.065 0.261,-12.065 1.5,-18 2.593,-4.779 6.427,-7.779 11.5,-9 z" />
  </g>
  <g
     id="g20"
     transform="translate(1881.3527,-147.32155)" />
  <g
     id="g28"
     transform="translate(1881.3527,-147.32155)">
    <path
       style="opacity:1"
       fill="#135d6a"
       d="m 347.5,509.5 c 7.797,-0.349 14.297,2.318 19.5,8 1.513,2.524 2.18,5.191 2,8 -11.957,0.041 -24.124,0.041 -36.5,0 1.581,-8.58 6.581,-13.913 15,-16 z"
       id="path26" />
  </g>
  <g
     id="g32"
     transform="translate(1881.3527,-147.32155)">
    <path
       style="opacity:1"
       fill="#135d6a"
       d="m 668.5,509.5 c 4.873,0.341 9.54,1.508 14,3.5 4.024,3.213 6.024,7.38 6,12.5 -12.333,0 -24.667,0 -37,0 1.81,-9.478 7.476,-14.811 17,-16 z"
       id="path30" />
  </g>
  <g
     id="g36"
     transform="translate(1881.3527,-147.32155)">
    <path
       style="opacity:1"
       fill="#135d6a"
       d="m 223.5,557.5 c 0.958,0.453 1.792,1.119 2.5,2 4,8 8,16 12,24 3.431,6.281 4.765,12.948 4,20 -7.327,14.858 -18.161,18.024 -32.5,9.5 -6.484,-7.342 -7.651,-15.509 -3.5,-24.5 4.667,-9.333 9.333,-18.667 14,-28 1.145,-1.136 2.312,-2.136 3.5,-3 z"
       id="path34" />
  </g>
  <g
     id="g40"
     transform="translate(1881.3527,-147.32155)">
    <path
       style="opacity:1"
       fill="#135d6a"
       d="m 797.5,557.5 c 1.871,0.359 3.371,1.359 4.5,3 5,10.333 10,20.667 15,31 3.143,15.54 -3.19,24.54 -19,27 -17.58,-4.494 -22.914,-15.161 -16,-32 5.028,-9.829 10.194,-19.496 15.5,-29 z"
       id="path38" />
  </g>
  <g
     id="g44"
     transform="translate(1881.3527,-147.32155)"
     clip-path="url(#clipPath230)"
     inkscape:path-effect="#path-effect236">
    <path
       style="opacity:1"
       fill="#135d6a"
       d="m 140.5,563.5 c 8.031,-0.404 13.865,2.929 17.5,10 7.508,60.205 27.841,115.538 61,166 2.713,3.592 5.547,7.092 8.5,10.5 34.998,0.5 69.998,0.667 105,0.5 0,-8.667 0,-17.333 0,-26 -13.337,0.167 -26.671,0 -40,-0.5 -13.048,-1.052 -21.215,-7.885 -24.5,-20.5 -0.667,-5.333 -0.667,-10.667 0,-16 1.833,-6.5 6,-10.667 12.5,-12.5 153.333,-0.667 306.667,-0.667 460,0 7.335,2.67 11.835,7.837 13.5,15.5 2.243,18.4 -5.59,29.567 -23.5,33.5 -13.996,0.5 -27.996,0.667 -42,0.5 0,8.667 0,17.333 0,26 35.335,0.167 70.668,0 106,-0.5 37.393,-51.486 59.893,-108.986 67.5,-172.5 3.971,-11.402 11.804,-15.569 23.5,-12.5 7.248,4.254 10.582,10.588 10,19 C 886.665,669.932 853.165,744.432 795,807.5 723.452,880.679 636.285,921.179 533.5,929 426.43,932.87 332.43,900.203 251.5,831 192.163,776.524 152.663,710.024 133,631.5 c -4.348,-18.098 -6.348,-36.431 -6,-55 2.417,-6.585 6.917,-10.918 13.5,-13 z"
       id="path42"
       inkscape:original-d="m 140.5,563.5 c 8.031,-0.404 13.865,2.929 17.5,10 7.508,60.205 27.841,115.538 61,166 2.713,3.592 5.547,7.092 8.5,10.5 34.998,0.5 69.998,0.667 105,0.5 0,-8.667 0,-17.333 0,-26 -13.337,0.167 -26.671,0 -40,-0.5 -13.048,-1.052 -21.215,-7.885 -24.5,-20.5 -0.667,-5.333 -0.667,-10.667 0,-16 1.833,-6.5 6,-10.667 12.5,-12.5 153.333,-0.667 306.667,-0.667 460,0 7.335,2.67 11.835,7.837 13.5,15.5 2.243,18.4 -5.59,29.567 -23.5,33.5 -13.996,0.5 -27.996,0.667 -42,0.5 0,8.667 0,17.333 0,26 35.335,0.167 70.668,0 106,-0.5 37.393,-51.486 59.893,-108.986 67.5,-172.5 3.971,-11.402 11.804,-15.569 23.5,-12.5 7.248,4.254 10.582,10.588 10,19 C 886.665,669.932 853.165,744.432 795,807.5 723.452,880.679 636.285,921.179 533.5,929 426.43,932.87 332.43,900.203 251.5,831 192.163,776.524 152.663,710.024 133,631.5 c -4.348,-18.098 -6.348,-36.431 -6,-55 2.417,-6.585 6.917,-10.918 13.5,-13 z" />
  </g>
  <g
     id="g48"
     transform="translate(1881.3527,-147.32155)">
    <path
       style="opacity:1"
       fill="#135d6a"
       d="m 298.5,590.5 c 141.501,-0.104 282.834,0.062 424,0.5 10.791,2.796 16.458,9.796 17,21 -0.767,12.431 -7.101,20.431 -19,24 -10.661,0.5 -21.328,0.667 -32,0.5 0,10 0,20 0,30 -12.333,0 -24.667,0 -37,0 0.319,-9.916 -0.014,-19.75 -1,-29.5 -41.999,-0.5 -83.999,-0.667 -126,-0.5 0.258,10.039 -0.076,20.039 -1,30 -8.667,0 -17.333,0 -26,0 0,-10 0,-20 0,-30 -42.667,0 -85.333,0 -128,0 0.053,10.012 0.387,20.012 1,30 -12.667,0 -25.333,0 -38,0 0,-10 0,-20 0,-30 -10.339,0.166 -20.672,0 -31,-0.5 -15.738,-5.424 -21.571,-16.257 -17.5,-32.5 2.584,-7.013 7.417,-11.346 14.5,-13 z"
       id="path46" />
  </g>
  <g
     aria-label="BoC   EL"
     transform="scale(0.96054255,1.0410783)"
     id="text218"
     style="font-size:972.146px;font-family:'Felix Titling';-inkscape-font-specification:'Felix Titling, Normal';fill:#135d6a;stroke-width:0.729114">
    <path
       d="m 0.94939709,45.929083 v -7.12021 H 182.75209 q 79.74635,0 112.974,6.64553 33.22764,6.645529 63.60721,25.632755 30.37956,18.512546 51.74019,54.113592 21.36063,35.12637 21.36063,80.22104 0,88.76528 -87.34124,140.03079 75.47422,12.81638 113.92336,62.65785 38.44913,49.36679 38.44913,120.09421 0,65.98061 -33.22765,120.0942 -32.75296,54.1136 -75.47422,72.15146 -42.24658,17.56319 -118.67017,17.56319 H 3.5762787e-5 v -6.64553 Q 32.278321,731.36796 41.297253,718.55158 50.316186,705.26052 50.316186,651.62161 V 124.72607 q 0,-37.97445 -2.373403,-51.740189 Q 46.04406,59.220142 34.177043,52.574613 22.310027,45.929083 0.94939709,45.929083 Z M 131.0119,53.523974 V 360.64236 h 84.96784 q 86.39188,0 114.39804,-49.36679 28.48084,-49.36679 28.48084,-98.25889 0,-52.68956 -21.83531,-87.81593 Q 315.188,89.599704 272.94142,71.561839 231.16952,53.523974 149.52444,53.523974 Z M 185.60017,375.35746 H 131.0119 v 221.67587 q 0,46.04403 3.32276,59.80977 3.79745,13.76573 16.13915,28.95552 12.81637,15.18978 40.82253,24.68339 28.00616,9.01893 80.69572,9.01893 81.64507,0 115.3474,-37.49977 33.70232,-37.97445 33.70232,-112.02464 0,-76.89826 -29.90488,-125.31569 -29.90488,-48.41743 -67.87933,-58.8604 -37.49978,-10.44298 -137.6574,-10.44298 z"
       id="path260" />
    <path
       d="m 951.73479,28.365899 q 147.15101,0 240.66311,89.714641 93.5121,89.23997 93.5121,223.09992 0,172.30908 -108.2272,290.02988 -108.2272,117.7208 -287.18181,117.7208 -145.25229,0 -237.81502,-94.93613 -92.56273,-94.93613 -92.56273,-227.84672 0,-89.71464 44.61999,-184.17609 Q 649.36321,147.51075 739.07785,88.175662 828.7925,28.365899 951.73479,28.365899 Z m -2.84808,683.540151 q 72.15149,0 142.40419,-38.44913 70.2527,-38.92382 110.6006,-106.80315 40.3479,-67.87933 40.3479,-139.55611 0,-101.58167 -54.5883,-184.65078 -54.1136,-83.06912 -140.9802,-130.0625 -86.39186,-46.99339 -159.96736,-46.99339 -103.95507,0 -188.9229,78.32231 -84.49316,78.32231 -84.49316,194.61907 0,148.57505 103.48038,261.07437 103.48039,112.49931 232.11885,112.49931 z"
       id="path262" />
    <path
       d="m 1958.0578,73.935242 26.1075,74.050188 h -6.6456 Q 1875.9381,46.878445 1738.2807,46.878445 q -142.8789,0 -231.1695,84.967835 -87.8159,84.96784 -87.8159,205.53673 0,74.52486 38.9238,171.35972 39.3985,96.83485 123.8916,159.4927 84.4932,62.18317 204.5874,62.18317 78.797,0 154.2712,-25.15808 75.9489,-25.63275 112.974,-68.35401 l 6.1709,1.89872 -48.8922,74.99954 q -118.6701,25.63276 -154.2712,30.37957 -35.1263,4.7468 -94.4614,4.7468 -219.7772,0 -314.7133,-101.58166 -94.4614,-102.05634 -94.4614,-243.98586 0,-95.88549 48.4174,-184.17609 48.8921,-88.76529 140.5055,-139.55612 91.6133,-51.265511 209.3341,-51.265511 58.8604,0 101.5817,10.917655 43.1959,10.442975 71.6768,21.835311 l 31.3289,11.867016 q 1.424,0.474681 1.8987,0.949361 z"
       id="path264" />
    <path
       d="m 2954.4125,46.878445 v -8.069572 h 439.5543 v 96.360177 h -7.1202 q -14.2404,-53.638917 -24.2087,-63.13253 -9.4937,-9.493613 -47.4681,-9.493613 H 3084.475 V 376.30682 h 214.081 q 31.8036,0 40.3478,-5.69616 8.5443,-6.17085 9.019,-17.56319 h 7.1202 v 65.98061 h -7.1202 q -2.3734,-13.76574 -11.3924,-18.51254 -8.5442,-4.74681 -32.2783,-4.74681 H 3084.475 v 215.9797 q 0,48.89211 9.0189,70.72742 9.019,21.36063 28.4809,27.0568 19.9366,5.22149 59.8097,5.22149 h 123.417 q 58.8604,0 74.9995,-3.79745 16.6139,-4.27212 28.0062,-16.13914 11.3923,-12.3417 17.5632,-53.16424 h 6.6455 v 96.36018 h -478.0034 v -6.64553 q 24.2087,-1.42404 36.5504,-9.01893 12.8164,-8.06957 12.8164,-40.82254 V 116.6565 q 0,-38.449132 -6.6455,-54.113593 -6.6456,-15.664462 -42.7213,-15.664462 z"
       id="path266" />
    <path
       d="m 3455.2006,738.01349 v -6.64553 q 32.7529,0 42.2465,-12.3417 9.9683,-12.34169 9.9683,-42.24658 V 104.3148 q 0,-30.379558 -7.5949,-43.670616 -7.5948,-13.765739 -45.5693,-14.715101 v -7.12021 h 187.4989 v 7.12021 q -26.1075,0 -36.5504,6.64553 -10.443,6.645529 -13.7658,15.664461 -3.3228,9.018933 -3.3228,40.822536 v 490.81981 q 0,63.13252 30.3796,89.23996 30.3796,25.63276 103.9551,25.63276 h 85.4425 q 61.7085,0 90.1893,-30.37957 28.9555,-30.37956 32.2783,-114.39804 h 6.6455 v 168.03696 z"
       id="path268" />
  </g>
</svg>
