<?xml version="1.0" encoding="UTF-8" standalone="no"?>
<svg
   version="1.1"
   width="3781.6572"
   height="784.36639"
   style="clip-rule:evenodd;fill-rule:evenodd;image-rendering:optimizeQuality;shape-rendering:geometricPrecision;text-rendering:geometricPrecision"
   id="svg54"
   sodipodi:docname="logo.svg"
   inkscape:export-filename="logo-full.svg"
   inkscape:export-xdpi="96"
   inkscape:export-ydpi="96"
   xmlns:inkscape="http://www.inkscape.org/namespaces/inkscape"
   xmlns:sodipodi="http://sodipodi.sourceforge.net/DTD/sodipodi-0.dtd"
   xmlns="http://www.w3.org/2000/svg"
   xmlns:svg="http://www.w3.org/2000/svg">
  <defs
     id="defs58" />
  <sodipodi:namedview
     id="namedview56"
     pagecolor="#ffffff"
     bordercolor="#000000"
     borderopacity="0.25"
     inkscape:showpageshadow="2"
     inkscape:pageopacity="0.0"
     inkscape:pagecheckerboard="0"
     inkscape:deskcolor="#d1d1d1"
     showgrid="false" />
  <g
     id="g4"
     transform="translate(1881.3527,-147.32155)">
    <path
       style="opacity:0.973"
       fill="#f7fdfc"
       d="m 477.5,147.5 c 26.752,-0.58 53.419,0.254 80,2.5 128.661,19.81 227.161,85.643 295.5,197.5 13.174,25.855 24.508,52.522 34,80 5.018,19.408 8.518,39.242 10.5,59.5 0.353,5.769 -0.481,11.269 -2.5,16.5 -3.027,2.36 -5.694,5.027 -8,8 -2.947,16.281 -2.947,32.614 0,49 1.41,2.384 3.41,4.05 6,5 1.162,2.324 2.329,4.658 3.5,7 1.165,9.316 1.332,18.649 0.5,28 -11.898,79.034 -45.065,148.367 -99.5,208 -57.773,59.658 -126.94,98.325 -207.5,116 -1.974,-0.147 -3.974,-0.481 -6,-1 -0.903,1.201 -2.069,2.035 -3.5,2.5 -103.265,16.629 -198.932,-3.204 -287,-59.5 -90.52,-62.601 -146.353,-147.601 -167.5,-255 -0.251,-9.33 -1.085,-18.497 -2.5,-27.5 0.196,-4.96 1.03,-9.793 2.5,-14.5 3.175,-3.508 6.675,-6.675 10.5,-9.5 -2.281,-1.482 -2.281,-3.149 0,-5 -0.383,-14.588 -0.383,-29.755 0,-45.5 -6.135,-1.294 -10.301,-4.961 -12.5,-11 -0.667,-7 -0.667,-14 0,-21 2.749,-16.432 6.082,-32.765 10,-49 32.479,-100.108 94.312,-176.941 185.5,-230.5 22.894,-11.226 46.228,-21.559 70,-31 14.301,-4.388 28.634,-8.388 43,-12 15.281,-1.828 30.281,-4.328 45,-7.5 z"
       id="path2" />
  </g>
  <g
     id="g8"
     transform="translate(1881.3527,-147.32155)">
    <path
       style="opacity:1"
       fill="#135d6a"
       d="m 479.5,151.5 c 115.683,-5.839 215.683,30.327 300,108.5 65.427,62.853 104.094,139.519 116,230 -3.101,16.218 -12.434,21.551 -28,16 -3.332,-2.491 -5.832,-5.658 -7.5,-9.5 -6.277,-54.202 -24.611,-103.869 -55,-149 C 746.361,264.558 666.861,213.392 566.5,194 505.869,183.62 446.869,189.62 389.5,212 284.957,252.954 213.457,326.121 175,431.5 c -6.587,20.518 -10.92,41.518 -13,63 -4.302,12.553 -12.802,16.719 -25.5,12.5 -4.647,-2.106 -7.814,-5.606 -9.5,-10.5 -0.684,-8.37 -0.351,-16.703 1,-25 20.858,-102.936 73.358,-185.436 157.5,-247.5 58.561,-40.465 123.227,-64.632 194,-72.5 z"
       id="path6" />
  </g>
  <g
     id="g12"
     transform="translate(1881.3527,-147.32155)">
    <path
       style="opacity:1"
       fill="#135d6a"
       d="m 509.5,217.5 c 6.797,0.482 11.63,3.815 14.5,10 0.191,5.583 0.691,11.083 1.5,16.5 103.503,9.985 185.669,56.819 246.5,140.5 14.146,20.195 25.813,41.861 35,65 2.247,5.137 2.914,10.47 2,16 -3.974,5.546 -9.14,7.046 -15.5,4.5 -3.872,-6.266 -7.372,-12.766 -10.5,-19.5 -22.991,-24.224 -49.491,-28.724 -79.5,-13.5 -10.572,6.573 -18.738,15.406 -24.5,26.5 -2.978,7.92 -5.645,15.92 -8,24 -4.478,4.435 -9.478,5.102 -15,2 -8.2,-41.497 -33.367,-62.33 -75.5,-62.5 -29.779,2.117 -48.279,17.617 -55.5,46.5 -0.5,19.664 -0.667,39.331 -0.5,59 58.499,-0.588 116.999,-0.922 175.5,-1 8.226,-0.101 16.392,0.399 24.5,1.5 14.584,8.438 18.084,20.271 10.5,35.5 -3.313,4.315 -7.479,7.482 -12.5,9.5 -11.328,0.5 -22.662,0.667 -34,0.5 0.079,1.43 -0.254,2.764 -1,4 -11.982,0.999 -23.982,1.332 -36,1 0,-1.667 0,-3.333 0,-5 -42.333,0 -84.667,0 -127,0 0,1.667 0,3.333 0,5 -9,0 -18,0 -27,0 0,-1.667 0,-3.333 0,-5 -42.667,0 -85.333,0 -128,0 0,1.667 0,3.333 0,5 -11.323,0.888 -22.656,1.055 -34,0.5 -1.504,-1.337 -2.504,-3.004 -3,-5 -10.667,-0.333 -21.333,-0.667 -32,-1 -14.828,-5.485 -20.328,-15.985 -16.5,-31.5 3.248,-8.584 9.415,-13.417 18.5,-14.5 64.561,-0.432 129.061,-0.265 193.5,0.5 1.142,-9.404 1.642,-18.904 1.5,-28.5 2.192,-17.761 -0.641,-34.594 -8.5,-50.5 -14.698,-20.023 -34.531,-28.856 -59.5,-26.5 -34.797,5.13 -55.63,24.963 -62.5,59.5 -5.369,6.198 -11.036,6.532 -17,1 -8.191,-41.503 -33.358,-61.003 -75.5,-58.5 -21.898,3.897 -36.398,16.397 -43.5,37.5 -6.445,6.908 -12.445,6.574 -18,-1 -1.093,-6.973 -0.093,-13.639 3,-20 24.494,-56.508 61.66,-103.008 111.5,-139.5 50.502,-36.006 106.835,-56.506 169,-61.5 -0.239,-6.065 0.261,-12.065 1.5,-18 2.593,-4.779 6.427,-7.779 11.5,-9 z"
       id="path10" />
  </g>
  <g
     id="g16"
     transform="translate(1881.3527,-147.32155)">
    <path
       style="opacity:0.973"
       fill="#f7fdfc"
       d="m 508.5,270.5 c 1.644,-0.214 3.144,0.12 4.5,1 1.761,5.9 3.095,11.9 4,18 2.612,24.43 4.112,48.93 4.5,73.5 -0.235,7.256 -1.068,14.423 -2.5,21.5 -7.245,6.096 -13.245,5.096 -18,-3 -0.438,-31.574 0.895,-63.241 4,-95 1.172,-5.354 2.339,-10.687 3.5,-16 z"
       id="path14" />
  </g>
  <g
     id="g20"
     transform="translate(1881.3527,-147.32155)">
    <path
       style="opacity:0.973"
       fill="#f7fdfc"
       d="m 543.5,273.5 c 10.568,0.274 20.901,2.607 31,7 35.989,25.176 62.323,58.01 79,98.5 -2.395,9.404 -7.895,11.904 -16.5,7.5 -18.192,-40.216 -44.026,-74.716 -77.5,-103.5 -5.196,-3.43 -10.529,-6.597 -16,-9.5 z"
       id="path18" />
  </g>
  <g
     id="g24"
     transform="translate(1881.3527,-147.32155)">
    <path
       style="opacity:0.973"
       fill="#f7fdfc"
       d="m 472.5,273.5 c 1.699,-0.16 3.366,0.006 5,0.5 -20.908,12.234 -38.742,28.067 -53.5,47.5 -15.142,20.777 -28.642,42.61 -40.5,65.5 -8.229,2.946 -13.229,0.113 -15,-8.5 13.987,-31.824 33.653,-59.658 59,-83.5 7,-5 14,-10 21,-15 7.928,-2.878 15.928,-5.044 24,-6.5 z"
       id="path22" />
  </g>
  <g
     id="g28"
     transform="translate(1881.3527,-147.32155)">
    <path
       style="opacity:1"
       fill="#135d6a"
       d="m 347.5,509.5 c 7.797,-0.349 14.297,2.318 19.5,8 1.513,2.524 2.18,5.191 2,8 -11.957,0.041 -24.124,0.041 -36.5,0 1.581,-8.58 6.581,-13.913 15,-16 z"
       id="path26" />
  </g>
  <g
     id="g32"
     transform="translate(1881.3527,-147.32155)">
    <path
       style="opacity:1"
       fill="#135d6a"
       d="m 668.5,509.5 c 4.873,0.341 9.54,1.508 14,3.5 4.024,3.213 6.024,7.38 6,12.5 -12.333,0 -24.667,0 -37,0 1.81,-9.478 7.476,-14.811 17,-16 z"
       id="path30" />
  </g>
  <g
     id="g36"
     transform="translate(1881.3527,-147.32155)">
    <path
       style="opacity:1"
       fill="#135d6a"
       d="m 223.5,557.5 c 0.958,0.453 1.792,1.119 2.5,2 4,8 8,16 12,24 3.431,6.281 4.765,12.948 4,20 -7.327,14.858 -18.161,18.024 -32.5,9.5 -6.484,-7.342 -7.651,-15.509 -3.5,-24.5 4.667,-9.333 9.333,-18.667 14,-28 1.145,-1.136 2.312,-2.136 3.5,-3 z"
       id="path34" />
  </g>
  <g
     id="g40"
     transform="translate(1881.3527,-147.32155)">
    <path
       style="opacity:1"
       fill="#135d6a"
       d="m 797.5,557.5 c 1.871,0.359 3.371,1.359 4.5,3 5,10.333 10,20.667 15,31 3.143,15.54 -3.19,24.54 -19,27 -17.58,-4.494 -22.914,-15.161 -16,-32 5.028,-9.829 10.194,-19.496 15.5,-29 z"
       id="path38" />
  </g>
  <g
     id="g44"
     transform="translate(1881.3527,-147.32155)">
    <path
       style="opacity:1"
       fill="#135d6a"
       d="m 140.5,563.5 c 8.031,-0.404 13.865,2.929 17.5,10 7.508,60.205 27.841,115.538 61,166 2.713,3.592 5.547,7.092 8.5,10.5 34.998,0.5 69.998,0.667 105,0.5 0,-8.667 0,-17.333 0,-26 -13.337,0.167 -26.671,0 -40,-0.5 -13.048,-1.052 -21.215,-7.885 -24.5,-20.5 -0.667,-5.333 -0.667,-10.667 0,-16 1.833,-6.5 6,-10.667 12.5,-12.5 153.333,-0.667 306.667,-0.667 460,0 7.335,2.67 11.835,7.837 13.5,15.5 2.243,18.4 -5.59,29.567 -23.5,33.5 -13.996,0.5 -27.996,0.667 -42,0.5 0,8.667 0,17.333 0,26 35.335,0.167 70.668,0 106,-0.5 37.393,-51.486 59.893,-108.986 67.5,-172.5 3.971,-11.402 11.804,-15.569 23.5,-12.5 7.248,4.254 10.582,10.588 10,19 C 886.665,669.932 853.165,744.432 795,807.5 723.452,880.679 636.285,921.179 533.5,929 426.43,932.87 332.43,900.203 251.5,831 192.163,776.524 152.663,710.024 133,631.5 c -4.348,-18.098 -6.348,-36.431 -6,-55 2.417,-6.585 6.917,-10.918 13.5,-13 z"
       id="path42" />
  </g>
  <g
     id="g48"
     transform="translate(1881.3527,-147.32155)">
    <path
       style="opacity:1"
       fill="#135d6a"
       d="m 298.5,590.5 c 141.501,-0.104 282.834,0.062 424,0.5 10.791,2.796 16.458,9.796 17,21 -0.767,12.431 -7.101,20.431 -19,24 -10.661,0.5 -21.328,0.667 -32,0.5 0,10 0,20 0,30 -12.333,0 -24.667,0 -37,0 0.319,-9.916 -0.014,-19.75 -1,-29.5 -41.999,-0.5 -83.999,-0.667 -126,-0.5 0.258,10.039 -0.076,20.039 -1,30 -8.667,0 -17.333,0 -26,0 0,-10 0,-20 0,-30 -42.667,0 -85.333,0 -128,0 0.053,10.012 0.387,20.012 1,30 -12.667,0 -25.333,0 -38,0 0,-10 0,-20 0,-30 -10.339,0.166 -20.672,0 -31,-0.5 -15.738,-5.424 -21.571,-16.257 -17.5,-32.5 2.584,-7.013 7.417,-11.346 14.5,-13 z"
       id="path46" />
  </g>
  <g
     id="g52"
     transform="translate(1881.3527,-147.32155)">
    <path
       style="opacity:0.973"
       fill="#f7fdfc"
       d="m 575.5,723.5 c 24.898,1.157 49.731,1.157 74.5,0 1.488,20.515 1.988,41.182 1.5,62 -9.339,-0.166 -18.673,0 -28,0.5 -7.794,-0.701 -12.127,2.799 -13,10.5 0.381,5.27 3.048,8.77 8,10.5 41.842,0.513 83.509,0.513 125,0 -10.764,9.433 -22.097,18.1 -34,26 -26,0.333 -52,0.667 -78,1 -67.183,33.684 -136.516,38.684 -208,15 -11.783,-4.725 -23.449,-9.725 -35,-15 -25.333,-0.333 -50.667,-0.667 -76,-1 -11.568,-7.565 -22.568,-15.899 -33,-25 41,-0.333 82,-0.667 123,-1 7.223,-2.994 9.39,-8.161 6.5,-15.5 -4.438,-5.039 -10.104,-7.039 -17,-6 -7.158,0.564 -14.325,0.897 -21.5,1 -0.281,-20.383 -0.281,-40.716 0,-61 42.328,-1 84.661,-1.333 127,-1 0.167,20.336 0,40.669 -0.5,61 -0.323,11.071 -5.49,14.405 -15.5,10 -3.273,-4.578 -3.939,-9.578 -2,-15 -1.459,-11.302 -7.792,-16.469 -19,-15.5 -4.928,1.927 -8.094,5.427 -9.5,10.5 -3.834,17.533 0.999,32.033 14.5,43.5 18.918,10.529 35.752,8.029 50.5,-7.5 5.433,-7.06 8.1,-15.06 8,-24 0.5,-20.997 0.667,-41.997 0.5,-63 17.175,0.33 34.175,-0.003 51,-1 z"
       id="path50" />
  </g>
  <text
     xml:space="preserve"
     style="font-style:normal;font-variant:normal;font-weight:normal;font-stretch:normal;font-size:972.146px;font-family:'Felix Titling';-inkscape-font-specification:'Felix Titling, Normal';font-variant-ligatures:normal;font-variant-caps:normal;font-variant-numeric:normal;font-variant-east-asian:normal;fill:#135d6a;fill-opacity:1;stroke-width:0.729114"
     x="-38.923779"
     y="738.01349"
     id="text218"
     transform="scale(0.96054255,1.0410783)"><tspan
       id="tspan216"
       x="-38.923779"
       y="738.01349"
       style="font-style:normal;font-variant:normal;font-weight:normal;font-stretch:normal;font-size:972.146px;font-family:'Felix Titling';-inkscape-font-specification:'Felix Titling, Normal';font-variant-ligatures:normal;font-variant-caps:normal;font-variant-numeric:normal;font-variant-east-asian:normal;fill:#135d6a;fill-opacity:1;stroke-width:0.729114"
       sodipodi:role="line">BoC   EL</tspan></text>
</svg>
