<?xml version="1.0" encoding="UTF-8"?>
<svg id="Layer_1" data-name="Layer 1" xmlns="http://www.w3.org/2000/svg" xmlns:xlink="http://www.w3.org/1999/xlink" viewBox="0 0 1024 1024">
  <defs>
    <style>
      .cls-1 {
        fill: url(#linear-gradient-2);
      }

      .cls-2 {
        fill: url(#linear-gradient-6);
      }

      .cls-3 {
        fill: url(#linear-gradient-11);
      }

      .cls-4 {
        fill: #1a6876;
      }

      .cls-5 {
        fill: #196876;
      }

      .cls-6 {
        fill: url(#linear-gradient-10);
      }

      .cls-7 {
        fill: url(#linear-gradient-5);
      }

      .cls-8 {
        fill: none;
      }

      .cls-9 {
        fill: url(#linear-gradient-7);
      }

      .cls-10 {
        fill: url(#linear-gradient-9);
      }

      .cls-11 {
        fill: url(#linear-gradient-3);
      }

      .cls-12 {
        fill: url(#linear-gradient);
      }

      .cls-13 {
        fill: #1eb2b6;
      }

      .cls-14 {
        fill: #ebf9f9;
      }

      .cls-15 {
        fill: url(#linear-gradient-4);
      }

      .cls-16 {
        fill: url(#linear-gradient-8);
      }

      .cls-17 {
        fill: url(#linear-gradient-12);
      }

      .cls-18 {
        fill: #042437;
      }
    </style>
    <linearGradient id="linear-gradient" x1="512" y1="16.38" x2="512" y2="994.63" gradientUnits="userSpaceOnUse">
      <stop offset="0" stop-color="#1eb2b6"/>
      <stop offset=".09" stop-color="#1dadb1"/>
      <stop offset=".19" stop-color="#1a9ea4"/>
      <stop offset=".3" stop-color="#16878f"/>
      <stop offset=".41" stop-color="#106672"/>
      <stop offset=".53" stop-color="#083c4c"/>
      <stop offset=".59" stop-color="#042437"/>
    </linearGradient>
    <linearGradient id="linear-gradient-2" x1="512" y1="16.38" x2="512" y2="994.63" xlink:href="#linear-gradient"/>
    <linearGradient id="linear-gradient-3" x1="825.01" y1="16.38" x2="825.01" y2="994.63" xlink:href="#linear-gradient"/>
    <linearGradient id="linear-gradient-4" x1="819.69" y1="16.38" x2="819.69" y2="599.39" xlink:href="#linear-gradient"/>
    <linearGradient id="linear-gradient-5" x1="830.47" y1="16.38" x2="830.47" y2="994.63" xlink:href="#linear-gradient"/>
    <linearGradient id="linear-gradient-6" x1="232.62" y1="829.71" x2="232.62" y2="836.79" xlink:href="#linear-gradient"/>
    <linearGradient id="linear-gradient-7" x1="198.99" y1="16.38" x2="198.99" y2="994.63" xlink:href="#linear-gradient"/>
    <linearGradient id="linear-gradient-8" x1="193.53" y1="16.38" x2="193.53" y2="994.63" xlink:href="#linear-gradient"/>
    <linearGradient id="linear-gradient-9" x1="188.52" y1="784.97" x2="188.52" y2="792.64" xlink:href="#linear-gradient"/>
    <linearGradient id="linear-gradient-10" x1="204.31" y1="16.38" x2="204.31" y2="692.62" xlink:href="#linear-gradient"/>
    <linearGradient id="linear-gradient-11" x1="188.51" y1="769.04" x2="188.51" y2="808.57" xlink:href="#linear-gradient"/>
    <linearGradient id="linear-gradient-12" x1="169.09" y1="760.84" x2="169.09" y2="767.92" xlink:href="#linear-gradient"/>
  </defs>
  <path class="cls-8" d="m629.58,284.16c-.56-.29-1.13-.56-1.69-.84.57.28,1.13.55,1.69.84Z"/>
  <path class="cls-8" d="m615.8,278.5c-.65-.2-1.3-.41-1.95-.6.65.19,1.3.4,1.95.6Z"/>
  <path class="cls-8" d="m619.78,279.86c-.6-.22-1.2-.46-1.81-.67.61.21,1.21.45,1.81.67Z"/>
  <path class="cls-8" d="m625.69,282.27c-.57-.26-1.15-.5-1.73-.74.58.25,1.15.48,1.73.74Z"/>
  <path class="cls-8" d="m611.67,277.32c-.67-.17-1.33-.34-2-.5.67.16,1.34.33,2,.5Z"/>
  <path class="cls-8" d="m607.48,276.34c-.68-.14-1.36-.27-2.05-.4.68.12,1.37.26,2.05.4Z"/>
  <path class="cls-8" d="m594.61,274.7c-.84-.04-1.69-.05-2.53-.07.85.02,1.69.03,2.53.07Z"/>
  <path class="cls-8" d="m336.76,297.69c-.51-.46-1.03-.91-1.55-1.35.52.45,1.04.89,1.55,1.35Z"/>
  <path class="cls-8" d="m633.38,286.24c-.54-.31-1.09-.62-1.64-.92.55.3,1.1.61,1.64.92Z"/>
  <path class="cls-8" d="m333.19,294.63c-.54-.44-1.09-.87-1.64-1.3.55.43,1.1.85,1.64,1.3Z"/>
  <path class="cls-8" d="m598.94,275.03c-.73-.07-1.46-.12-2.19-.18.73.05,1.46.11,2.19.18Z"/>
  <path class="cls-8" d="m603.23,275.58c-.7-.11-1.4-.2-2.1-.29.7.09,1.4.18,2.1.29Z"/>
  <path class="cls-8" d="m780.77,311.88c2.12,2.57,4.19,5.18,6.24,7.82-2.04-2.64-4.12-5.25-6.24-7.82Z"/>
  <path class="cls-8" d="m787.22,319.97c2.06,2.66,4.07,5.35,6.06,8.08-1.98-2.73-4-5.42-6.06-8.08Z"/>
  <path class="cls-8" d="m767.17,296.3c2.28,2.46,4.53,4.96,6.74,7.49-2.21-2.53-4.46-5.03-6.74-7.49Z"/>
  <path class="cls-8" d="m774.09,303.98c2.19,2.51,4.35,5.06,6.47,7.64-2.12-2.58-4.28-5.13-6.47-7.64Z"/>
  <path class="cls-8" d="m793.42,328.24c2.02,2.78,4.01,5.6,5.95,8.45-1.94-2.85-3.93-5.67-5.95-8.45Z"/>
  <path class="cls-8" d="m640.65,290.93c-.47-.34-.95-.68-1.43-1.01.48.33.95.67,1.43,1.01Z"/>
  <path class="cls-8" d="m637.08,288.51c-.52-.33-1.03-.66-1.56-.98.52.32,1.04.65,1.56.98Z"/>
  <path class="cls-8" d="m643.97,293.41c-.38-.3-.76-.6-1.14-.89.38.29.76.6,1.14.89Z"/>
  <path class="cls-8" d="m697.72,289.48c-.07.04-.13.09-.19.14.07-.04.13-.09.19-.14Z"/>
  <path class="cls-8" d="m745.2,274.6c5.07,4.57,10,9.3,14.8,14.18-4.8-4.88-9.74-9.61-14.8-14.18-16.92.15-33.15,5.29-47.34,14.79,14.19-9.51,30.42-14.64,47.34-14.79Z"/>
  <path class="cls-8" d="m317.88,284.48c-.68-.36-1.36-.69-2.05-1.02.68.34,1.37.67,2.05,1.02Z"/>
  <path class="cls-8" d="m678.59,306.51c.37-.43.73-.88,1.12-1.3-.38.42-.75.85-1.13,1.28,0,0,0,.01.01.02Z"/>
  <polygon class="cls-8" points="649.45 298.01 649.46 298.02 649.46 298.01 649.45 298.01"/>
  <path class="cls-8" d="m365.45,307.48c.6-.7,1.18-1.41,1.8-2.1-.6.67-1.19,1.35-1.76,2.03-.01.03-.03.05-.04.08Z"/>
  <path class="cls-8" d="m329.52,291.78c-.57-.42-1.16-.83-1.74-1.24.58.41,1.17.81,1.74,1.24Z"/>
  <path class="cls-8" d="m384.61,209.1c1.29-.51,2.59-1.01,3.88-1.5-1.3.49-2.59.99-3.88,1.5Z"/>
  <path class="cls-8" d="m353.38,223.18c1.34-.68,2.68-1.36,4.03-2.03-1.35.67-2.69,1.34-4.03,2.03Z"/>
  <path class="cls-8" d="m283.41,274.77c-1.53-.1-3.06-.15-4.6-.17-2.54,2.29-5.04,4.62-7.51,6.99,2.47-2.37,4.97-4.7,7.51-6.99,1.54.01,3.07.07,4.6.16Z"/>
  <path class="cls-8" d="m338.75,299.54c.49.47.98.93,1.46,1.41-.48-.48-.97-.94-1.46-1.41Z"/>
  <path class="cls-8" d="m358.27,220.72c1.49-.74,3-1.46,4.5-2.17-1.51.71-3.01,1.44-4.5,2.17Z"/>
  <path class="cls-8" d="m363.15,218.36c5.02-2.37,10.1-4.62,15.23-6.76-5.14,2.13-10.21,4.38-15.23,6.76Z"/>
  <path class="cls-8" d="m379.21,211.27c1.39-.57,2.79-1.14,4.19-1.7-1.4.56-2.8,1.12-4.19,1.7Z"/>
  <path class="cls-8" d="m342.16,302.94c.3.31.59.62.88.93,0,0,0-.01.01-.02-.29-.31-.6-.61-.89-.91Z"/>
  <path class="cls-8" d="m760.04,288.83c2.37,2.41,4.71,4.87,7.02,7.35-2.31-2.49-4.65-4.94-7.02-7.35Z"/>
  <path class="cls-8" d="m313.82,282.48c-.71-.33-1.44-.63-2.16-.94.72.31,1.44.61,2.16.94Z"/>
  <path class="cls-8" d="m321.86,286.7c-.64-.38-1.3-.74-1.95-1.1.65.36,1.3.72,1.95,1.1Z"/>
  <path class="cls-8" d="m309.67,280.69c-.75-.3-1.51-.57-2.27-.85.76.28,1.52.55,2.27.85Z"/>
  <path class="cls-8" d="m325.74,289.13c-.61-.4-1.23-.79-1.84-1.17.62.39,1.23.77,1.84,1.17Z"/>
  <path class="cls-8" d="m292.38,275.81c-1.05-.18-2.1-.32-3.16-.46,1.06.14,2.11.28,3.16.46Z"/>
  <path class="cls-8" d="m389.83,207.1c1.28-.48,2.57-.95,3.86-1.42-1.29.47-2.58.94-3.86,1.42Z"/>
  <path class="cls-8" d="m296.8,276.69c-.92-.21-1.85-.38-2.78-.55.93.18,1.86.35,2.78.55Z"/>
  <path class="cls-8" d="m301.15,277.8c-.85-.24-1.7-.44-2.55-.65.85.21,1.71.42,2.55.65Z"/>
  <path class="cls-8" d="m305.45,279.13c-.79-.27-1.59-.51-2.39-.75.8.25,1.6.48,2.39.75Z"/>
  <path class="cls-8" d="m615.92,200.84c1.16.36,2.31.73,3.46,1.1-1.15-.37-2.31-.74-3.46-1.1Z"/>
  <path class="cls-8" d="m459.15,189.05c1.95-.3,3.9-.58,5.85-.85-1.96.26-3.91.55-5.85.85Z"/>
  <path class="cls-8" d="m488.63,185.83c2.35-.16,4.7-.3,7.06-.41-2.36.11-4.71.25-7.06.41Z"/>
  <path class="cls-8" d="m502.67,185.18c.99-.03,1.97-.05,2.96-.06-.99.02-1.98.03-2.96.06Z"/>
  <path class="cls-8" d="m465.01,188.2c2.29-.31,4.59-.59,6.9-.85-2.3.26-4.6.54-6.9.85Z"/>
  <path class="cls-8" d="m473.29,187.19c4.65-.51,9.32-.94,14.01-1.27-4.69.33-9.36.75-14.01,1.27Z"/>
  <path class="cls-8" d="m517.99,185.12c.99.02,1.98.03,2.96.05-.99-.02-1.97-.04-2.96-.05Z"/>
  <path class="cls-8" d="m555.47,187.75c1.54.19,3.08.39,4.61.61-1.53-.21-3.07-.41-4.61-.61Z"/>
  <path class="cls-8" d="m528.31,185.42c2.03.1,4.06.21,6.09.34-2.03-.13-4.05-.25-6.09-.34Z"/>
  <path class="cls-8" d="m548.3,186.93c1.98.21,3.97.43,5.94.67-1.98-.24-3.96-.46-5.94-.67Z"/>
  <path class="cls-8" d="m542.25,186.36c1.51.13,3.01.27,4.52.42-1.5-.15-3.01-.29-4.52-.42Z"/>
  <path class="cls-8" d="m535.87,185.87c1.53.1,3.06.22,4.59.34-1.53-.12-3.06-.24-4.59-.34Z"/>
  <path class="cls-8" d="m400.14,203.42c1.63-.55,3.26-1.09,4.89-1.62-1.64.53-3.27,1.07-4.89,1.62Z"/>
  <path class="cls-8" d="m416.74,198.26c1.51-.43,3.02-.85,4.53-1.25-1.51.41-3.02.83-4.53,1.25Z"/>
  <path class="cls-8" d="m405.29,201.72c3.55-1.14,7.13-2.23,10.73-3.26-3.6,1.03-7.18,2.11-10.73,3.26Z"/>
  <path class="cls-8" d="m394.99,205.21c1.36-.48,2.72-.96,4.09-1.42-1.37.47-2.73.94-4.09,1.42Z"/>
  <path class="cls-8" d="m422.53,196.68c1.34-.36,2.69-.71,4.04-1.05-1.35.34-2.7.69-4.04,1.05Z"/>
  <path class="cls-8" d="m718.19,252.57c9.35,6.87,18.35,14.22,26.98,22.01-8.63-7.79-17.64-15.14-26.98-22.01Z"/>
  <path class="cls-8" d="m438.78,192.79c1.97-.42,3.95-.83,5.93-1.22-1.98.39-3.96.8-5.93,1.22Z"/>
  <path class="cls-8" d="m445.8,191.36c1.62-.31,3.24-.61,4.86-.9-1.62.29-3.24.59-4.86.9Z"/>
  <path class="cls-8" d="m453.15,190.02c1.19-.2,2.39-.4,3.59-.59-1.2.19-2.39.39-3.59.59Z"/>
  <path class="cls-8" d="m433.43,193.97c1.35-.31,2.7-.61,4.05-.91-1.35.3-2.71.6-4.05.91Z"/>
  <path class="cls-8" d="m428.03,195.27c1.31-.32,2.62-.64,3.93-.95-1.31.31-2.62.63-3.93.95Z"/>
  <path class="cls-8" d="m562.2,188.66c1.3.19,2.6.38,3.89.59-1.3-.2-2.59-.4-3.89-.59Z"/>
  <path class="cls-8" d="m658.66,217.35c1.47.68,2.94,1.38,4.4,2.08-1.46-.7-2.93-1.4-4.4-2.08Z"/>
  <path class="cls-8" d="m653.56,215.03c1.36.6,2.71,1.22,4.07,1.84-1.35-.62-2.71-1.23-4.07-1.84Z"/>
  <path class="cls-8" d="m648.23,212.71c1.4.6,2.8,1.2,4.19,1.81-1.39-.61-2.79-1.22-4.19-1.81Z"/>
  <path class="cls-8" d="m636.79,208.08c3.53,1.35,7.03,2.76,10.51,4.23-3.48-1.46-6.98-2.88-10.51-4.23Z"/>
  <path class="cls-8" d="m663.65,219.71c5.17,2.5,10.27,5.13,15.3,7.88-5.03-2.75-10.14-5.38-15.3-7.88Z"/>
  <path class="cls-8" d="m684.35,230.6c1.51.86,3.01,1.73,4.51,2.61-1.5-.88-3-1.75-4.51-2.61Z"/>
  <path class="cls-8" d="m689.28,233.46c8.26,4.89,16.32,10.12,24.15,15.68-7.83-5.56-15.89-10.79-24.15-15.68Z"/>
  <path class="cls-8" d="m679.1,227.67c1.59.87,3.18,1.76,4.76,2.65-1.58-.9-3.17-1.78-4.76-2.65Z"/>
  <path class="cls-8" d="m713.49,249.18c1.56,1.1,3.1,2.22,4.64,3.35-1.54-1.13-3.08-2.25-4.64-3.35Z"/>
  <path class="cls-8" d="m631.67,206.17c1.58.58,3.16,1.17,4.73,1.77-1.57-.6-3.15-1.19-4.73-1.77Z"/>
  <path class="cls-8" d="m603.57,197.23c1.74.47,3.48.96,5.21,1.46-1.73-.5-3.47-.99-5.21-1.46Z"/>
  <path class="cls-8" d="m598.29,195.85c1.18.3,2.35.61,3.52.92-1.17-.31-2.35-.62-3.52-.92Z"/>
  <path class="cls-8" d="m592.97,194.54c1,.24,2,.48,2.99.73-1-.25-1.99-.49-2.99-.73Z"/>
  <path class="cls-8" d="m587.63,193.31c.94.21,1.88.42,2.82.64-.94-.22-1.88-.43-2.82-.64Z"/>
  <path class="cls-8" d="m574.2,190.6c1.82.33,3.64.67,5.45,1.03-1.81-.36-3.63-.7-5.45-1.03Z"/>
  <path class="cls-8" d="m626.5,204.33c1.24.43,2.48.87,3.72,1.32-1.24-.45-2.48-.89-3.72-1.32Z"/>
  <path class="cls-8" d="m582.25,192.16c.92.19,1.85.38,2.77.58-.92-.2-1.85-.39-2.77-.58Z"/>
  <path class="cls-8" d="m348.46,225.74c1.3-.69,2.61-1.38,3.92-2.06-1.31.68-2.62,1.36-3.92,2.06Z"/>
  <path class="cls-8" d="m568.25,189.59c1.48.24,2.97.5,4.45.76-1.48-.26-2.96-.51-4.45-.76Z"/>
  <path class="cls-8" d="m621.27,202.56c1.15.38,2.31.77,3.46,1.16-1.15-.39-2.3-.78-3.46-1.16Z"/>
  <path class="cls-8" d="m610.17,199.1c1.3.38,2.61.77,3.9,1.17-1.3-.4-2.6-.78-3.9-1.17Z"/>
  <path class="cls-8" d="m287.92,275.17c-1.36-.16-2.73-.28-4.1-.37,1.37.09,2.74.21,4.1.37Z"/>
  <path class="cls-8" d="m472.98,936.18c-.42-.04-.85-.07-1.27-.11.42.04.85.07,1.27.11Z"/>
  <path class="cls-8" d="m444.76,932.64c-1.18-.19-2.36-.37-3.53-.57,1.17.2,2.35.38,3.53.57Z"/>
  <path class="cls-8" d="m462.82,935.13c-1.04-.12-2.07-.25-3.1-.38,1.03.13,2.06.26,3.1.38Z"/>
  <path class="cls-8" d="m435.1,930.99c-.91-.17-1.82-.32-2.72-.49.9.17,1.81.32,2.72.49Z"/>
  <path class="cls-8" d="m453.83,933.99c-1.19-.16-2.38-.33-3.56-.51,1.19.17,2.37.34,3.56.51Z"/>
  <path class="cls-8" d="m406.89,924.82c-1.4-.36-2.79-.71-4.19-1.08,1.39.37,2.79.73,4.19,1.08Z"/>
  <path class="cls-8" d="m415.46,926.91c-1.36-.32-2.72-.64-4.08-.97,1.36.33,2.72.66,4.08.97Z"/>
  <path class="cls-8" d="m424.08,928.83c-1.23-.26-2.46-.54-3.69-.81,1.23.27,2.46.55,3.69.81Z"/>
  <path class="cls-8" d="m564.28,934.75c-1.03.13-2.06.26-3.1.38,1.04-.12,2.07-.25,3.1-.38Z"/>
  <path class="cls-8" d="m543.17,936.82c-1.02.07-2.05.14-3.07.2,1.02-.07,2.05-.13,3.07-.2Z"/>
  <path class="cls-8" d="m533.87,937.39c-1.1.06-2.19.11-3.29.16,1.1-.05,2.2-.1,3.29-.16Z"/>
  <path class="cls-8" d="m552.29,936.07c-.42.04-.85.07-1.27.11.42-.04.85-.07,1.27-.11Z"/>
  <path class="cls-8" d="m398.3,922.53c-2.01-.56-4.02-1.13-6.02-1.71,2,.59,4.01,1.16,6.02,1.71Z"/>
  <path class="cls-8" d="m493.42,937.55c-1.1-.05-2.2-.1-3.29-.16,1.1.06,2.19.11,3.29.16Z"/>
  <path class="cls-8" d="m483.9,937.03c-1.02-.07-2.05-.13-3.07-.2,1.02.07,2.05.14,3.07.2Z"/>
  <path class="cls-8" d="m188.51,788.8c-6.77-7.9-13.24-16.05-19.42-24.42,6.18,8.38,12.66,16.53,19.42,24.42Z"/>
  <path class="cls-8" d="m573.74,933.48c-1.19.17-2.37.34-3.56.51,1.19-.16,2.38-.33,3.56-.51Z"/>
  <path class="cls-8" d="m524.19,937.77c-.97.03-1.95.06-2.92.08.98-.02,1.95-.06,2.92-.08Z"/>
  <path class="cls-8" d="m243.45,311.62c2.13-2.58,4.28-5.13,6.48-7.64-2.19,2.51-4.35,5.06-6.48,7.64Z"/>
  <path class="cls-8" d="m204.27,806.21c-1.61-1.68-3.2-3.38-4.78-5.09,1.58,1.71,3.17,3.41,4.78,5.09Z"/>
  <path class="cls-8" d="m256.95,296.18c2.3-2.48,4.64-4.93,7.02-7.35-2.37,2.41-4.71,4.86-7.02,7.35Z"/>
  <path class="cls-8" d="m237,319.7c2.04-2.64,4.12-5.25,6.24-7.82-2.12,2.58-4.19,5.18-6.24,7.82Z"/>
  <path class="cls-8" d="m301.51,882.2c-1.87-1.07-3.73-2.15-5.59-3.24,1.85,1.1,3.72,2.17,5.59,3.24Z"/>
  <path class="cls-8" d="m198.5,800.05c-1.5-1.63-2.98-3.27-4.46-4.92,1.47,1.65,2.96,3.29,4.46,4.92Z"/>
  <path class="cls-8" d="m193.02,793.97c-1.51-1.71-3.02-3.43-4.5-5.16,1.49,1.73,2.99,3.45,4.5,5.16Z"/>
  <path class="cls-8" d="m250.09,303.79c2.21-2.53,4.46-5.03,6.74-7.49-2.28,2.46-4.53,4.96-6.74,7.49Z"/>
  <path class="cls-8" d="m386.64,919.13c-1.54-.48-3.07-.97-4.61-1.47,1.53.49,3.07.99,4.61,1.47Z"/>
  <path class="cls-8" d="m370.35,913.72c-1.63-.57-3.25-1.15-4.86-1.75,1.62.59,3.24,1.17,4.86,1.75Z"/>
  <path class="cls-8" d="m378.42,916.49c-1.58-.52-3.16-1.06-4.73-1.6,1.57.54,3.15,1.08,4.73,1.6Z"/>
  <path class="cls-8" d="m362.61,910.9c-5.94-2.23-11.83-4.6-17.64-7.09,5.82,2.49,11.7,4.85,17.64,7.09Z"/>
  <path class="cls-8" d="m308.69,886.21c-1.9-1.04-3.79-2.09-5.67-3.15,1.88,1.06,3.77,2.12,5.67,3.15Z"/>
  <path class="cls-8" d="m328.09,896.15c-6.27-3.01-12.46-6.17-18.55-9.48,6.1,3.31,12.28,6.47,18.55,9.48Z"/>
  <path class="cls-8" d="m335.18,899.48c-1.8-.83-3.6-1.66-5.38-2.51,1.79.85,3.58,1.68,5.38,2.51Z"/>
  <path class="cls-8" d="m342.79,902.88c-1.78-.77-3.55-1.56-5.32-2.36,1.77.8,3.54,1.59,5.32,2.36Z"/>
  <path class="cls-8" d="m502.73,937.85c-.98-.02-1.95-.06-2.92-.08.97.03,1.95.06,2.92.08Z"/>
  <path class="cls-8" d="m230.74,328.04c1.98-2.72,4-5.42,6.05-8.08-2.05,2.66-4.07,5.35-6.05,8.08Z"/>
  <path class="cls-8" d="m309.91,249.6c1.32-.94,2.65-1.88,3.99-2.8-1.34.92-2.66,1.86-3.99,2.8Z"/>
  <path class="cls-8" d="m287.43,267.07c5.71-4.83,11.57-9.46,17.58-13.91-6,4.44-11.86,9.08-17.58,13.91Z"/>
  <path class="cls-8" d="m305.1,253.09c1.43-1.05,2.86-2.1,4.3-3.13-1.44,1.03-2.88,2.08-4.3,3.13Z"/>
  <path class="cls-8" d="m224.64,336.69c1.94-2.85,3.93-5.67,5.95-8.45-2.02,2.78-4.01,5.6-5.95,8.45Z"/>
  <path class="cls-8" d="m283.29,270.63c1.26-1.1,2.53-2.19,3.81-3.27-1.28,1.08-2.55,2.17-3.81,3.27Z"/>
  <path class="cls-8" d="m829.96,795.12c-1.47,1.65-2.96,3.3-4.46,4.93,1.5-1.63,2.99-3.27,4.46-4.93Z"/>
  <path class="cls-8" d="m204.35,806.29c9.01,9.41,18.44,18.41,28.26,26.96-9.83-8.56-19.26-17.55-28.26-26.96Z"/>
  <path class="cls-8" d="m582.77,932.07c-1.17.2-2.35.38-3.53.57,1.18-.19,2.36-.37,3.53-.57Z"/>
  <path class="cls-8" d="m323.68,240.27c6.24-4.01,12.6-7.82,19.08-11.43-6.48,3.61-12.85,7.42-19.08,11.43Z"/>
  <path class="cls-8" d="m791.38,833.25h-145.56c-6.8,0-12.31-5.51-12.31-12.31s5.51-12.31,12.31-12.31h36.57v-75.86h-154.15c.04,44.71.07,76.3.07,76.3,0,25.25-20.54,45.79-45.79,45.79s-45.78-20.54-45.78-45.79v-11.73c0-9.02,7.3-16.31,16.31-16.31s16.31,7.3,16.31,16.31v11.73c0,7.25,5.9,13.16,13.15,13.16s13.16-5.91,13.16-13.16c0,0-.08-31.6-.19-76.3h-154.93v75.86h36.06c6.8,0,12.31,5.51,12.31,12.31s-5.51,12.31-12.31,12.31h-144.01c19.3,16.81,40.12,31.9,62.22,45.06-6.31-3.75-12.51-7.66-18.6-11.72h88.99c6.58,3.32,13.28,6.44,20.11,9.33,40.13,16.97,82.73,25.58,126.65,25.58s86.53-8.61,126.64-25.58c6.83-2.89,13.53-6.01,20.11-9.33h89c-6.09,4.06-12.3,7.97-18.61,11.72,33.37-19.86,63.81-44.14,90.51-72.03-9.01,9.41-18.44,18.41-28.27,26.97Z"/>
  <path class="cls-8" d="m279.13,274.31c1.19-1.07,2.39-2.14,3.6-3.19-1.21,1.06-2.4,2.12-3.6,3.19Z"/>
  <path class="cls-8" d="m319.11,243.26c1.42-.95,2.85-1.88,4.29-2.81-1.44.93-2.87,1.86-4.29,2.81Z"/>
  <path class="cls-8" d="m343.42,228.48c1.36-.75,2.73-1.5,4.1-2.23-1.37.74-2.74,1.48-4.1,2.23Z"/>
  <path class="cls-8" d="m314.54,246.36c1.32-.91,2.65-1.81,3.98-2.7-1.33.89-2.66,1.79-3.98,2.7Z"/>
  <path class="cls-8" d="m631.74,920.81c-2.01.59-4.02,1.16-6.04,1.72,2.02-.56,4.03-1.13,6.04-1.72Z"/>
  <path class="cls-8" d="m621.29,923.74c-1.39.37-2.79.73-4.19,1.08,1.4-.36,2.8-.71,4.19-1.08Z"/>
  <path class="cls-8" d="m641.97,917.66c-1.54.49-3.07.99-4.61,1.47,1.54-.48,3.08-.98,4.61-1.47Z"/>
  <path class="cls-8" d="m658.52,911.98c-1.62.59-3.24,1.17-4.86,1.75,1.63-.57,3.25-1.15,4.86-1.75Z"/>
  <path class="cls-8" d="m650.31,914.89c-1.57.54-3.15,1.08-4.73,1.6,1.58-.52,3.16-1.06,4.73-1.6Z"/>
  <path class="cls-8" d="m824.52,801.11c-1.58,1.71-3.18,3.41-4.79,5.1,1.61-1.69,3.21-3.39,4.79-5.1Z"/>
  <path class="cls-8" d="m591.62,930.5c-.91.17-1.82.33-2.72.49.91-.17,1.82-.32,2.72-.49Z"/>
  <path class="cls-8" d="m603.61,928.02c-1.23.27-2.46.55-3.69.81,1.23-.26,2.46-.54,3.69-.81Z"/>
  <path class="cls-8" d="m612.62,925.94c-1.36.33-2.72.66-4.08.98,1.36-.32,2.72-.64,4.08-.98Z"/>
  <path class="cls-8" d="m720.98,883.06c-1.88,1.06-3.77,2.12-5.67,3.16,1.9-1.04,3.79-2.09,5.67-3.16Z"/>
  <path class="cls-8" d="m728.08,878.95c-1.85,1.1-3.72,2.18-5.59,3.25,1.87-1.07,3.74-2.15,5.59-3.25Z"/>
  <path class="cls-8" d="m679.04,903.81c-5.82,2.49-11.7,4.85-17.64,7.09,5.95-2.23,11.83-4.6,17.64-7.09Z"/>
  <path class="cls-8" d="m264.01,288.78c2.39-2.43,4.82-4.83,7.28-7.19-2.46,2.36-4.89,4.75-7.28,7.19Z"/>
  <path class="cls-8" d="m714.47,886.66c-6.1,3.31-12.29,6.47-18.56,9.49,6.27-3.02,12.46-6.18,18.56-9.49Z"/>
  <path class="cls-8" d="m694.2,896.98c-1.79.85-3.58,1.68-5.39,2.51,1.8-.83,3.6-1.66,5.39-2.51Z"/>
  <path class="cls-8" d="m686.53,900.52c-1.77.8-3.54,1.59-5.32,2.36,1.78-.77,3.55-1.56,5.32-2.36Z"/>
  <path class="cls-5" d="m768.16,813.86c1.41,2,2.25,4.44,2.25,7.08,0,4.76-2.71,8.88-6.66,10.93-.01.46-.03.92-.03,1.38h27.67c9.83-8.56,19.27-17.56,28.27-26.97.02-.02.05-.05.07-.07,1.61-1.69,3.21-3.39,4.79-5.1.33-.35.65-.7.98-1.06,1.5-1.63,2.99-3.27,4.46-4.93.34-.38.68-.77,1.02-1.15,1.52-1.71,3.02-3.43,4.51-5.17h-27.33c-17.59,0-32.8,10.22-40,25.06Z"/>
  <path class="cls-13" d="m763.75,831.88c-1.69.88-3.61,1.38-5.65,1.38h5.61c0-.46.02-.92.03-1.38Z"/>
  <path class="cls-13" d="m758.1,808.64c4.16,0,7.83,2.07,10.06,5.23,7.2-14.83,22.41-25.06,40-25.06h27.33c6.77-7.9,13.24-16.05,19.43-24.43h-127.49v44.26h30.68Z"/>
  <path class="cls-5" d="m260.9,832.76c-5.12-1.49-8.86-6.21-8.86-11.81,0-3.4,1.38-6.47,3.6-8.7-7.5-13.95-22.23-23.44-39.17-23.44h-27.95s0,0,0,0c1.49,1.73,2.99,3.45,4.5,5.16.34.39.68.77,1.03,1.16,1.47,1.65,2.96,3.29,4.46,4.92.33.36.66.71.99,1.07,1.58,1.71,3.17,3.41,4.78,5.09.03.03.05.06.08.08,9.01,9.41,18.44,18.41,28.26,26.96,0,0,0,0,0,0h28.29c0-.17-.01-.33-.01-.5Z"/>
  <path class="cls-13" d="m264.34,833.25c-1.2,0-2.35-.18-3.45-.5,0,.17.01.33.01.5h3.44Z"/>
  <path class="cls-13" d="m188.51,788.8s0,0,0,0h27.95c16.95,0,31.68,9.49,39.17,23.44,2.23-2.23,5.31-3.61,8.71-3.61h31.2v-44.26h-126.45,0c6.18,8.38,12.66,16.53,19.42,24.43Z"/>
  <path class="cls-18" d="m264.34,808.64c-3.4,0-6.48,1.38-8.71,3.61-2.22,2.23-3.6,5.3-3.6,8.7,0,5.6,3.74,10.32,8.86,11.81,1.1.32,2.25.5,3.45.5h112.28c6.8,0,12.31-5.51,12.31-12.31s-5.51-12.31-12.31-12.31h-36.06v-75.86h-45.03v75.86h-31.2Z"/>
  <rect class="cls-18" x="295.54" y="628.35" width="45.03" height="34.58"/>
  <rect class="cls-18" x="295.54" y="557.99" width="45.03" height="6.65"/>
  <path class="cls-18" d="m318.05,474.64h0c-11.26,0-20.57,8.28-22.23,19.08h44.45c-1.66-10.8-10.96-19.08-22.23-19.08Z"/>
  <path class="cls-18" d="m682.39,808.64h-36.57c-6.8,0-12.31,5.51-12.31,12.31s5.51,12.31,12.31,12.31h112.28c2.04,0,3.95-.5,5.65-1.38,3.96-2.05,6.66-6.17,6.66-10.93,0-2.64-.84-5.08-2.25-7.08-2.23-3.16-5.9-5.23-10.06-5.23h-30.68v-75.86h-45.03v75.86Z"/>
  <rect class="cls-18" x="682.39" y="628.35" width="45.03" height="34.58"/>
  <rect class="cls-18" x="682.39" y="557.99" width="45.03" height="6.65"/>
  <path class="cls-18" d="m704.91,474.64h0c-11.26,0-20.57,8.28-22.23,19.08h44.45c-1.66-10.8-10.96-19.08-22.23-19.08Z"/>
  <path class="cls-12" d="m956.1,547.29c-10.94,0-20.21,8.11-21.59,18.96-11.06,86.71-48.32,165.34-103.54,227.73-.34.38-.68.77-1.02,1.15-1.47,1.65-2.96,3.3-4.46,4.93-.33.35-.65.71-.98,1.06-1.58,1.71-3.18,3.41-4.79,5.1-.02.02-.05.05-.07.07-26.7,27.9-57.14,52.18-90.51,72.03-.36.21-.71.43-1.07.64-1.86,1.1-3.72,2.18-5.59,3.25-.5.29-1.01.57-1.51.86-1.88,1.06-3.77,2.12-5.67,3.16-.28.15-.55.3-.83.45-6.1,3.31-12.29,6.47-18.56,9.49-.57.27-1.14.55-1.71.82-1.79.85-3.58,1.68-5.39,2.51-.76.35-1.52.7-2.29,1.04-1.77.8-3.54,1.59-5.32,2.36-.72.31-1.45.62-2.17.93-5.82,2.49-11.7,4.85-17.64,7.09-.96.36-1.91.72-2.87,1.08-1.62.59-3.24,1.17-4.86,1.75-1.11.39-2.23.78-3.34,1.17-1.57.54-3.15,1.08-4.73,1.6-1.2.4-2.4.78-3.61,1.17-1.54.49-3.07.99-4.61,1.47-1.87.58-3.74,1.13-5.62,1.68-2.01.59-4.02,1.16-6.04,1.72-1.47.41-2.93.82-4.41,1.21-1.39.37-2.79.73-4.19,1.08-1.49.38-2.99.75-4.48,1.12-1.36.33-2.72.66-4.08.98-1.64.38-3.28.75-4.93,1.11-1.23.27-2.46.55-3.69.81-2.75.58-5.52,1.14-8.29,1.67-.91.17-1.82.33-2.72.49-2.04.37-4.08.74-6.13,1.08-1.17.2-2.35.38-3.53.57-1.83.29-3.66.57-5.5.84-1.19.17-2.37.34-3.56.51-1.96.27-3.92.52-5.89.76-1.03.13-2.06.26-3.1.38-2.96.34-5.92.66-8.89.94-.42.04-.85.07-1.27.11-2.61.24-5.23.45-7.85.64-1.02.07-2.05.14-3.07.2-2.07.14-4.14.26-6.22.36-1.1.06-2.19.11-3.29.16-2.13.09-4.26.16-6.39.22-.97.03-1.95.06-2.92.08-3.08.07-6.17.11-9.27.11s-6.18-.04-9.27-.11c-.98-.02-1.95-.06-2.92-.08-2.13-.06-4.27-.13-6.39-.22-1.1-.05-2.2-.1-3.29-.16-2.08-.11-4.15-.23-6.22-.36-1.02-.07-2.05-.13-3.07-.2-2.62-.19-5.24-.41-7.85-.64-.42-.04-.85-.07-1.27-.11-2.97-.28-5.94-.6-8.89-.94-1.04-.12-2.07-.25-3.1-.38-1.97-.24-3.93-.49-5.89-.76-1.19-.16-2.38-.33-3.56-.51-1.84-.27-3.67-.55-5.5-.84-1.18-.19-2.36-.37-3.53-.57-2.05-.34-4.1-.71-6.14-1.09-.91-.17-1.82-.32-2.72-.49-2.77-.53-5.54-1.08-8.29-1.67-1.23-.26-2.46-.54-3.69-.81-1.65-.36-3.29-.73-4.93-1.11-1.36-.32-2.72-.64-4.08-.97-1.5-.36-2.99-.74-4.49-1.12-1.4-.36-2.79-.71-4.19-1.08-1.47-.39-2.94-.8-4.41-1.21-2.01-.56-4.02-1.13-6.02-1.71-1.88-.55-3.76-1.11-5.64-1.68-1.54-.48-3.07-.97-4.61-1.47-1.2-.39-2.41-.77-3.61-1.17-1.58-.52-3.16-1.06-4.73-1.6-1.12-.38-2.23-.77-3.34-1.17-1.63-.57-3.25-1.15-4.86-1.75-.96-.35-1.92-.72-2.87-1.08-5.94-2.23-11.83-4.6-17.64-7.09-.72-.31-1.45-.61-2.17-.93-1.78-.77-3.55-1.56-5.32-2.36-.76-.34-1.53-.69-2.29-1.04-1.8-.82-3.6-1.66-5.38-2.51-.57-.27-1.14-.55-1.72-.83-6.27-3.01-12.46-6.17-18.55-9.48-.28-.15-.56-.3-.84-.45-1.9-1.04-3.79-2.09-5.67-3.15-.51-.29-1.01-.57-1.52-.86-1.87-1.07-3.73-2.15-5.59-3.24-.36-.21-.72-.43-1.08-.64-22.11-13.16-42.93-28.25-62.22-45.06h0s0,0,0,0c-9.83-8.56-19.26-17.55-28.26-26.96-.03-.03-.05-.06-.08-.08-1.61-1.68-3.2-3.38-4.78-5.09-.33-.36-.66-.71-.99-1.07-1.5-1.63-2.98-3.27-4.46-4.92-.34-.38-.68-.77-1.03-1.16-1.51-1.71-3.02-3.43-4.5-5.16,0,0,0,0,0,0,0,0,0,0,0,0-6.77-7.9-13.24-16.05-19.42-24.42h0c-42.01-56.93-70.22-124.63-79.6-198.13-1.38-10.85-10.65-18.96-21.59-18.96h0c-13.07,0-23.27,11.44-21.63,24.42,5.36,42.32,16.45,83.51,33.17,123.03,23.64,55.91,57.49,106.12,100.6,149.23,43.11,43.11,93.31,76.96,149.21,100.6,57.9,24.48,119.38,36.91,182.75,36.91s124.85-12.42,182.74-36.91c55.92-23.64,106.12-57.49,149.23-100.6,43.11-43.11,76.96-93.32,100.6-149.23,16.72-39.52,27.82-80.71,33.17-123.03,1.64-12.97-8.56-24.42-21.63-24.42Z"/>
  <path class="cls-1" d="m67.9,476.71h0c10.94,0,20.21-8.11,21.59-18.96C116.2,248.4,295.5,86.04,512,86.04s395.8,162.36,422.51,371.72c1.38,10.85,10.65,18.96,21.59,18.96h0c13.07,0,23.27-11.44,21.63-24.41-5.35-42.33-16.44-83.53-33.17-123.05-23.64-55.91-57.49-106.11-100.6-149.21-43.11-43.11-93.31-76.96-149.23-100.61-57.89-24.48-119.36-36.9-182.74-36.9s-124.85,12.41-182.75,36.9c-55.91,23.65-106.11,57.5-149.21,100.61-43.11,43.11-76.96,93.31-100.6,149.21-16.73,39.52-27.82,80.72-33.17,123.05-1.64,12.97,8.56,24.41,21.63,24.41Z"/>
  <path class="cls-5" d="m825.5,800.05c-.33.35-.65.71-.98,1.06.33-.35.65-.7.98-1.06Z"/>
  <path class="cls-11" d="m825.5,800.05c-.33.35-.65.71-.98,1.06.33-.35.65-.7.98-1.06Z"/>
  <path class="cls-5" d="m819.73,806.21s-.05.05-.07.07c.02-.02.05-.05.07-.07Z"/>
  <path class="cls-15" d="m819.73,806.21s-.05.05-.07.07c.02-.02.05-.05.07-.07Z"/>
  <path class="cls-5" d="m830.97,793.98c-.34.38-.68.77-1.02,1.15.34-.38.68-.77,1.02-1.15Z"/>
  <path class="cls-7" d="m830.97,793.98c-.34.38-.68.77-1.02,1.15.34-.38.68-.77,1.02-1.15Z"/>
  <polygon class="cls-5" points="232.62 833.25 232.62 833.25 232.62 833.25 232.62 833.25"/>
  <polygon class="cls-2" points="232.62 833.25 232.62 833.25 232.62 833.25 232.62 833.25"/>
  <path class="cls-5" d="m199.49,801.11c-.33-.36-.66-.71-.99-1.07.33.36.66.71.99,1.07Z"/>
  <path class="cls-9" d="m199.49,801.11c-.33-.36-.66-.71-.99-1.07.33.36.66.71.99,1.07Z"/>
  <path class="cls-5" d="m194.04,795.13c-.34-.38-.68-.77-1.03-1.16.34.39.68.77,1.03,1.16Z"/>
  <path class="cls-16" d="m194.04,795.13c-.34-.38-.68-.77-1.03-1.16.34.39.68.77,1.03,1.16Z"/>
  <polygon class="cls-5" points="188.51 788.81 188.52 788.81 188.51 788.81 188.51 788.81"/>
  <polygon class="cls-10" points="188.51 788.81 188.52 788.81 188.51 788.81 188.51 788.81"/>
  <path class="cls-5" d="m204.35,806.29s-.05-.06-.08-.08c.03.03.05.06.08.08Z"/>
  <path class="cls-6" d="m204.35,806.29s-.05-.06-.08-.08c.03.03.05.06.08.08Z"/>
  <polygon class="cls-13" points="188.51 788.8 188.51 788.81 188.51 788.81 188.51 788.8"/>
  <polygon class="cls-3" points="188.51 788.8 188.51 788.81 188.51 788.81 188.51 788.8"/>
  <polygon class="cls-13" points="169.09 764.38 169.09 764.38 169.09 764.38 169.09 764.38"/>
  <polygon class="cls-17" points="169.09 764.38 169.09 764.38 169.09 764.38 169.09 764.38"/>
  <path class="cls-4" d="m600,333.81c28.05,0,54.46,10.86,74.38,30.61,4.86,4.82,9.2,10.03,12.99,15.57,3.78-5.53,8.12-10.74,12.98-15.57,19.93-19.75,46.33-30.61,74.38-30.61,8.4,0,16.65.99,24.63,2.89-1.94-2.85-3.93-5.67-5.95-8.45-.05-.07-.1-.13-.15-.2-1.98-2.72-4-5.42-6.06-8.08-.07-.09-.14-.18-.21-.27-2.04-2.64-4.12-5.25-6.24-7.82-.07-.09-.14-.17-.21-.26-2.12-2.58-4.28-5.13-6.47-7.64-.06-.07-.12-.13-.17-.2-2.21-2.53-4.46-5.03-6.74-7.49-.04-.04-.07-.08-.11-.12-2.31-2.49-4.65-4.94-7.02-7.35-.01-.01-.03-.03-.04-.04-4.8-4.88-9.74-9.61-14.8-14.18-16.92.15-33.15,5.29-47.34,14.79-.05.03-.09.06-.14.09-.07.04-.13.09-.19.14-6.39,4.32-12.37,9.53-17.81,15.58,0,0,0,0,0,.01-.38.43-.74.87-1.12,1.3.91,1.71,1.81,3.43,2.68,5.15,5.76,13.4-13.12,22.28-19.73,9.17-3.79-7.71-7.83-15.33-12.08-22.82,0,0,0,0-.01,0h0c-1.78-1.62-3.61-3.14-5.48-4.6-.38-.3-.76-.6-1.14-.89-.72-.54-1.45-1.06-2.18-1.58-.47-.34-.95-.68-1.43-1.01-.71-.48-1.42-.95-2.14-1.42-.52-.33-1.03-.66-1.56-.98-.71-.44-1.42-.87-2.14-1.28-.54-.31-1.09-.62-1.64-.92-.72-.4-1.44-.79-2.16-1.16-.56-.29-1.13-.56-1.69-.84-.73-.36-1.46-.72-2.19-1.05-.57-.26-1.15-.5-1.73-.74-1.38-.59-2.78-1.15-4.19-1.67-.6-.22-1.2-.46-1.81-.67-.72-.25-1.44-.46-2.17-.69-.65-.2-1.3-.41-1.95-.6-.72-.21-1.45-.39-2.18-.58-.67-.17-1.33-.34-2-.5-.73-.17-1.46-.32-2.19-.47-.68-.14-1.36-.27-2.05-.4-.73-.13-1.46-.26-2.19-.37-.7-.11-1.4-.2-2.1-.29-.73-.09-1.46-.19-2.19-.26-.73-.07-1.46-.12-2.19-.18-.71-.05-1.43-.12-2.14-.15-.84-.04-1.69-.05-2.53-.07-.57-.01-1.14-.04-1.72-.04-24.61,0-47.05,10.67-63.83,28.11-1.44,1.49-2.83,3.03-4.18,4.62-.08,2.97-.19,5.96-.33,8.93-.29,6.02-5.4,10.65-11.41,10.34-5.63-.28-10.05-4.83-10.34-10.34-.13-3.63-.24-7.25-.31-10.88-.81-.91-1.63-1.8-2.48-2.67-16.79-17.44-39.23-28.11-63.83-28.11s-48.49,10.86-66.24,30.61c-.05.06-.1.12-.15.17-.61.69-1.2,1.4-1.8,2.1-.46.83-.91,1.68-1.36,2.52-1.9,3.58-3.82,7.41-5.56,11.07-6.71,12.76-25.35,3.93-19.61-9.4,1.33-2.59,2.7-5.2,4.12-7.79-.29-.31-.59-.63-.88-.93-.64-.67-1.29-1.35-1.95-2-.48-.48-.97-.94-1.46-1.41-.66-.63-1.32-1.25-1.99-1.85-.51-.46-1.03-.91-1.55-1.35-.67-.58-1.33-1.15-2.01-1.7-.54-.44-1.09-.87-1.64-1.3-.67-.53-1.35-1.05-2.03-1.55-.57-.42-1.16-.83-1.74-1.24-.68-.48-1.35-.95-2.04-1.41-.61-.4-1.23-.79-1.84-1.17-.68-.43-1.35-.85-2.04-1.26-.64-.38-1.3-.74-1.95-1.1-.67-.38-1.35-.76-2.03-1.12-.68-.36-1.36-.69-2.05-1.02-.67-.33-1.34-.67-2.01-.98-.71-.33-1.44-.63-2.16-.94-.66-.28-1.32-.58-1.99-.85-.75-.3-1.51-.57-2.27-.85-.65-.24-1.3-.49-1.96-.71-.79-.27-1.59-.51-2.39-.75-.63-.19-1.26-.4-1.9-.58-.85-.24-1.7-.44-2.55-.65-.6-.15-1.2-.32-1.81-.45-.92-.21-1.85-.38-2.78-.55-.55-.1-1.09-.23-1.64-.32-1.05-.18-2.1-.32-3.16-.46-.44-.06-.87-.13-1.31-.19-1.36-.16-2.73-.28-4.1-.37-.14,0-.27-.03-.41-.04-1.53-.1-3.06-.15-4.6-.16-2.54,2.29-5.04,4.62-7.51,6.99,0,0,0,0,0,0-2.46,2.36-4.89,4.75-7.28,7.19-.02.02-.03.03-.05.05-2.37,2.41-4.71,4.86-7.02,7.35-.04.04-.08.08-.11.12-2.28,2.46-4.53,4.96-6.74,7.49-.06.06-.11.13-.17.19-2.19,2.51-4.35,5.06-6.48,7.64-.07.08-.14.17-.21.25-2.12,2.57-4.19,5.18-6.24,7.82-.07.09-.14.18-.21.27-2.05,2.66-4.07,5.35-6.05,8.08-.05.07-.1.13-.15.2-2.02,2.78-4.01,5.6-5.95,8.45,7.96-1.9,16.22-2.89,24.62-2.89,28.05,0,54.46,10.86,74.38,30.61,4.86,4.82,9.2,10.03,12.98,15.57,3.79-5.53,8.13-10.74,12.99-15.57,19.93-19.75,46.33-30.61,74.38-30.61s52.84,10.67,71.69,28.11c6.16,5.69,11.65,12.11,16.31,19.12,4.66-7.01,10.15-13.43,16.31-19.12,18.85-17.44,44.05-28.11,71.69-28.11Z"/>
  <path class="cls-13" d="m412.85,237.41c-18.2,21.55-33.95,45.19-47.36,69.98.57-.68,1.16-1.36,1.76-2.03.05-.06.1-.12.15-.17,17.75-19.75,41.26-30.61,66.24-30.61s47.05,10.67,63.83,28.11c.85.87,1.67,1.76,2.48,2.67-.69-29.17.44-58.43,2.73-87.52,1.03-10.92,2.16-21.82,4.1-32.74-.38,0-.76,0-1.14.01-.99.01-1.98.04-2.96.06-2.33.06-4.66.13-6.99.24-2.36.11-4.71.25-7.06.41-.44.03-.89.06-1.33.09-4.69.33-9.36.75-14.01,1.27-.46.05-.92.1-1.38.16-2.3.26-4.61.54-6.9.85,0,0,0,0,0,0-19.32,14.15-36.67,30.94-52.15,49.21Z"/>
  <path class="cls-13" d="m619.84,226.09c23.03,24,43.14,50.97,58.75,80.4.37-.43.74-.86,1.13-1.28,0,0,0,0,0-.01,5.44-6.05,11.41-11.26,17.81-15.58.07-.04.13-.09.19-.14.05-.03.09-.06.14-.09,14.19-9.51,30.42-14.64,47.34-14.79,0,0-.01-.01-.02-.02-8.63-7.79-17.64-15.14-26.98-22.01-.02-.01-.04-.03-.06-.04-1.54-1.13-3.08-2.25-4.64-3.35-.02-.01-.04-.03-.06-.04-7.83-5.56-15.89-10.79-24.15-15.68-.14-.08-.28-.16-.41-.24-1.5-.88-3-1.75-4.51-2.61-.16-.09-.33-.19-.49-.28-1.58-.9-3.17-1.78-4.76-2.65-.05-.03-.1-.05-.15-.08-5.03-2.75-10.14-5.38-15.3-7.88-.2-.09-.39-.19-.59-.28-1.46-.7-2.93-1.4-4.4-2.08-.35-.16-.69-.32-1.04-.48-1.35-.62-2.71-1.23-4.07-1.84-.38-.17-.76-.34-1.13-.5-1.39-.61-2.79-1.22-4.19-1.81-.31-.13-.62-.27-.94-.4-3.48-1.46-6.98-2.88-10.51-4.23-.13-.05-.26-.1-.38-.14-1.57-.6-3.15-1.19-4.73-1.77-.48-.18-.96-.35-1.44-.52-1.24-.45-2.48-.89-3.72-1.32-.59-.21-1.18-.41-1.78-.61-1.15-.39-2.3-.78-3.46-1.16-.63-.21-1.26-.41-1.89-.62-1.15-.37-2.31-.74-3.46-1.1-.61-.19-1.23-.39-1.84-.57-1.3-.4-2.6-.78-3.9-1.17-.46-.14-.93-.28-1.39-.41-1.73-.5-3.47-.99-5.21-1.46-.58-.16-1.17-.31-1.76-.46-1.17-.31-2.35-.62-3.52-.92-.77-.2-1.55-.39-2.32-.58-1-.25-1.99-.49-2.99-.73-.84-.2-1.68-.39-2.52-.59-.94-.22-1.88-.43-2.82-.64-.87-.19-1.74-.38-2.61-.57-.92-.2-1.85-.39-2.77-.58-.63-.13-1.25-.26-1.88-.38,14.22,10.12,27.38,21.72,39.46,34.31Z"/>
  <path class="cls-13" d="m522.2,267.05c.35,13.43.52,26.84.15,40.27,1.35-1.58,2.74-3.13,4.18-4.62,16.79-17.44,39.23-28.11,63.83-28.11.57,0,1.15.03,1.72.04.85.02,1.69.03,2.53.07.72.04,1.43.1,2.14.15.73.05,1.46.11,2.19.18.73.07,1.46.17,2.19.26.7.09,1.4.18,2.1.29.73.11,1.47.24,2.19.37.68.12,1.37.26,2.05.4.73.15,1.46.31,2.19.47.67.16,1.34.33,2,.5.73.19,1.45.37,2.18.58.65.19,1.3.4,1.95.6.72.23,1.45.44,2.17.69.61.21,1.21.45,1.81.67,1.41.52,2.81,1.07,4.19,1.67.58.25,1.15.48,1.73.74.74.34,1.46.7,2.19,1.05.57.28,1.13.55,1.69.84.73.37,1.44.77,2.16,1.16.55.3,1.1.61,1.64.92.72.42,1.43.84,2.14,1.28.52.32,1.04.65,1.56.98.72.46,1.43.93,2.14,1.42.48.33.95.67,1.43,1.01.73.52,1.46,1.04,2.18,1.58.38.29.76.6,1.14.89,1.87,1.46,3.7,2.98,5.48,4.6-20.39-35.95-46.06-69.11-77.26-96.25-5.67-5.03-11.63-9.7-17.78-14.15-.05,0-.1-.01-.15-.02-1.98-.24-3.96-.46-5.94-.67-.51-.05-1.03-.1-1.54-.15-1.5-.15-3.01-.29-4.52-.42-.6-.05-1.19-.1-1.79-.15-1.53-.12-3.06-.24-4.59-.34-.49-.03-.97-.07-1.46-.1-2.03-.13-4.05-.25-6.09-.34-2.45-.11-4.9-.19-7.36-.26-.99-.02-1.97-.04-2.96-.05-.83-.01-1.66-.02-2.48-.03,1.94,10.92,3.07,21.84,4.09,32.76,1.41,16.24,2.18,32.9,2.6,49.2Z"/>
  <path class="cls-13" d="m283.81,274.8c1.37.09,2.74.21,4.1.37.44.05.87.13,1.31.19,1.06.14,2.11.28,3.16.46.55.09,1.09.22,1.64.32.93.18,1.86.35,2.78.55.61.14,1.2.3,1.81.45.85.21,1.71.42,2.55.65.64.18,1.27.39,1.9.58.8.25,1.6.48,2.39.75.66.22,1.31.47,1.96.71.76.28,1.52.55,2.27.85.67.27,1.33.56,1.99.85.72.31,1.44.61,2.16.94.68.31,1.34.65,2.01.98.68.34,1.37.67,2.05,1.02.68.36,1.35.74,2.03,1.12.65.36,1.3.72,1.95,1.1.68.41,1.36.83,2.04,1.26.62.39,1.23.77,1.84,1.17.69.45,1.36.93,2.04,1.41.58.41,1.17.81,1.74,1.24.68.5,1.36,1.03,2.03,1.55.55.43,1.1.85,1.64,1.3.68.55,1.35,1.13,2.01,1.7.52.45,1.04.89,1.55,1.35.67.6,1.33,1.23,1.99,1.85.49.47.98.93,1.46,1.41.66.65,1.31,1.32,1.95,2,.29.31.6.6.89.91,22.49-41.18,56.02-82.47,95.31-110.98-.29.06-.58.13-.87.19-1.35.3-2.71.6-4.05.91-.49.11-.98.23-1.47.34-1.31.31-2.62.63-3.93.95-.49.12-.97.24-1.46.36-1.35.34-2.7.69-4.04,1.05-.42.11-.84.22-1.26.33-1.51.41-3.02.83-4.53,1.25-.24.07-.48.13-.72.2-3.6,1.03-7.18,2.11-10.73,3.26-.09.03-.17.06-.26.08-1.64.53-3.27,1.07-4.89,1.62-.36.12-.71.24-1.06.37-1.37.47-2.73.94-4.09,1.42-.43.15-.87.31-1.3.47-1.29.47-2.58.94-3.86,1.42-.45.17-.89.33-1.34.5-1.3.49-2.59.99-3.88,1.5-.4.16-.8.31-1.2.47-1.4.56-2.8,1.12-4.19,1.7-.27.11-.55.22-.82.34-5.14,2.13-10.21,4.38-15.23,6.76-.13.06-.26.12-.39.18-1.51.71-3.01,1.44-4.5,2.17-.29.14-.57.28-.86.43-1.35.67-2.69,1.34-4.03,2.03-.33.17-.66.34-.99.51-1.31.68-2.62,1.36-3.92,2.06-.31.17-.63.33-.94.5-1.37.74-2.74,1.48-4.1,2.23-.22.12-.44.24-.66.37-6.48,3.61-12.85,7.42-19.08,11.43-.09.06-.18.12-.27.18-1.44.93-2.87,1.86-4.29,2.81-.2.13-.39.26-.59.39-1.33.89-2.66,1.79-3.98,2.7-.21.15-.43.29-.64.44-1.34.92-2.66,1.86-3.99,2.8-.17.12-.34.24-.51.36-1.44,1.03-2.88,2.08-4.3,3.13-.03.02-.06.05-.1.07-6,4.44-11.86,9.08-17.58,13.91-.11.1-.22.19-.34.29-1.28,1.08-2.55,2.17-3.81,3.27-.19.16-.37.33-.56.49-1.21,1.06-2.4,2.12-3.6,3.19-.11.1-.21.19-.32.29,1.54.01,3.07.07,4.6.17.14,0,.27.03.41.04Z"/>
  <path class="cls-18" d="m527.98,439.5c0-38.09,33.94-69.08,72.03-69.08s68.69,30.67,69.07,68.37c.1,10.04,8.27,18.13,18.31,18.13s18.21-8.08,18.31-18.13c.37-37.69,31.35-68.37,69.05-68.37,23.01,0,44.39,11.37,57.28,30.45,3.24,5.15,8.97,8.57,15.51,8.57,10.12,0,18.31-8.21,18.31-18.32,0-8.93-14.97-31.58-18.84-38.76-29.12-54.03-70.89-100.24-122.28-134.96-58.43-39.47-126.02-61.67-196.41-64.63v-13.26c0-9-7.3-16.31-16.31-16.31s-16.31,7.31-16.31,16.31v13.26c-70.38,2.96-137.98,25.16-196.41,64.63-45.09,30.46-82.77,69.77-111,115.44-8.22,13.31-28.47,46.58-30.12,58.29h0c0,10.13,8.19,18.32,18.31,18.32,6.47,0,12.16-3.36,15.41-8.42,12.88-19.17,34.31-30.6,57.38-30.6,37.71,0,68.68,30.67,69.05,68.37.1,10.04,8.27,18.13,18.31,18.13,5.03,0,9.57-2.02,12.88-5.29,3.31-3.28,5.38-7.82,5.43-12.83.37-37.69,31.36-68.37,69.07-68.37s70.79,30.99,70.79,69.08c0,.89.06,25.95.15,62.65h33.1c-.03-36.7-.06-61.77-.06-62.65Zm-15.98-58.47c-4.66-7.01-10.15-13.43-16.31-19.12-18.85-17.44-44.05-28.11-71.69-28.11s-54.46,10.86-74.38,30.61c-4.86,4.82-9.2,10.03-12.99,15.57-3.78-5.53-8.12-10.74-12.98-15.57-19.93-19.75-46.33-30.61-74.38-30.61-8.4,0-16.65.99-24.62,2.89,1.94-2.85,3.93-5.67,5.95-8.45.05-.07.1-.13.15-.2,1.98-2.72,4-5.42,6.05-8.08.07-.09.14-.18.21-.27,2.04-2.64,4.12-5.25,6.24-7.82.07-.08.14-.17.21-.25,2.12-2.58,4.28-5.13,6.48-7.64.05-.06.11-.13.17-.19,2.21-2.53,4.46-5.03,6.74-7.49.04-.04.08-.08.11-.12,2.3-2.49,4.64-4.93,7.02-7.35.02-.02.03-.03.05-.05,2.39-2.43,4.82-4.83,7.28-7.19,0,0,0,0,0,0,2.47-2.37,4.98-4.7,7.51-6.99.11-.1.21-.19.32-.29,1.19-1.07,2.39-2.14,3.6-3.19.19-.16.37-.33.56-.49,1.26-1.1,2.53-2.19,3.81-3.27.11-.1.22-.19.34-.29,5.71-4.83,11.57-9.46,17.58-13.91.03-.02.06-.05.1-.07,1.43-1.05,2.86-2.1,4.3-3.13.17-.12.34-.24.51-.36,1.32-.94,2.65-1.88,3.99-2.8.21-.15.43-.29.64-.44,1.32-.91,2.65-1.81,3.98-2.7.2-.13.39-.26.59-.39,1.42-.95,2.85-1.88,4.29-2.81.09-.06.18-.12.27-.18,6.24-4.01,12.6-7.82,19.08-11.43.22-.12.44-.24.66-.37,1.36-.75,2.73-1.5,4.1-2.23.31-.17.63-.33.94-.5,1.3-.69,2.61-1.38,3.92-2.06.33-.17.66-.34.99-.51,1.34-.68,2.68-1.36,4.03-2.03.29-.14.57-.29.86-.43,1.49-.74,3-1.46,4.5-2.17.13-.06.26-.12.39-.18,5.02-2.37,10.1-4.62,15.23-6.76.27-.11.55-.22.82-.34,1.39-.57,2.79-1.14,4.19-1.7.4-.16.8-.32,1.2-.47,1.29-.51,2.59-1.01,3.88-1.5.44-.17.89-.34,1.34-.5,1.28-.48,2.57-.95,3.86-1.42.43-.16.87-.31,1.3-.47,1.36-.48,2.72-.96,4.09-1.42.36-.12.71-.25,1.06-.37,1.63-.55,3.26-1.09,4.89-1.62.09-.03.17-.06.26-.08,3.55-1.14,7.13-2.23,10.73-3.26.24-.07.48-.13.72-.2,1.51-.43,3.02-.85,4.53-1.25.42-.11.84-.22,1.26-.33,1.34-.36,2.69-.71,4.04-1.05.49-.12.97-.24,1.46-.36,1.31-.32,2.62-.64,3.93-.95.49-.12.98-.23,1.47-.34,1.35-.31,2.7-.61,4.05-.91.29-.06.58-.13.87-.19,0,0,0,0,0,0,.14-.03.27-.06.41-.08,1.97-.42,3.95-.83,5.93-1.22.36-.07.73-.14,1.09-.21,1.62-.31,3.24-.61,4.86-.9.83-.15,1.66-.29,2.49-.43,1.19-.2,2.39-.4,3.59-.59.8-.13,1.6-.26,2.41-.38,1.95-.3,3.9-.58,5.85-.85,0,0,0,0,0,0h0s0,0,0,0c2.29-.31,4.59-.59,6.9-.85.46-.05.92-.11,1.38-.16,4.65-.52,9.32-.94,14.01-1.27.44-.03.89-.06,1.33-.09,2.35-.16,4.7-.3,7.06-.41,2.32-.11,4.65-.18,6.99-.24.99-.03,1.98-.04,2.96-.06.38,0,.76,0,1.14-.01,0,0,0,0,0-.01,1.74-.04,3.48-.05,5.22-.05,1.17,0,2.33,0,3.5.02,0,0,0,.01,0,.02.83,0,1.66.01,2.48.03.99.02,1.98.03,2.96.05,2.46.06,4.91.14,7.36.26,2.03.09,4.06.21,6.09.34.49.03.97.07,1.46.1,1.53.1,3.06.22,4.59.34.6.05,1.19.1,1.79.15,1.51.13,3.01.27,4.52.42.51.05,1.03.1,1.54.15,1.99.21,3.97.43,5.94.67.05,0,.1.01.15.02h0c.36.04.71.09,1.07.14,1.54.19,3.08.39,4.61.61.71.1,1.41.2,2.12.3,1.3.19,2.6.38,3.89.59.72.11,1.44.22,2.15.34,1.48.24,2.97.49,4.45.76.5.09,1.01.17,1.51.26,1.82.33,3.64.67,5.45,1.03.23.05.47.09.71.13,0,0,.01,0,.02.01.63.12,1.25.25,1.88.38.92.19,1.85.38,2.77.58.87.19,1.74.38,2.61.57.94.21,1.88.42,2.82.64.84.19,1.68.39,2.52.59,1,.24,2,.48,2.99.73.77.19,1.55.38,2.32.58,1.18.3,2.35.61,3.52.92.59.16,1.17.31,1.76.46,1.74.47,3.48.96,5.21,1.46.46.13.93.28,1.39.41,1.3.38,2.61.77,3.9,1.17.62.19,1.23.38,1.84.57,1.16.36,2.31.73,3.46,1.1.63.2,1.26.41,1.89.62,1.15.38,2.31.77,3.46,1.16.59.2,1.19.41,1.78.61,1.24.43,2.48.87,3.72,1.32.48.17.96.34,1.44.52,1.58.58,3.16,1.17,4.73,1.77.13.05.26.1.38.14,3.53,1.35,7.03,2.76,10.51,4.23.31.13.62.27.94.4,1.4.6,2.8,1.2,4.19,1.81.38.17.76.34,1.13.5,1.36.6,2.71,1.22,4.07,1.84.35.16.69.32,1.04.48,1.47.68,2.94,1.38,4.4,2.08.2.09.39.19.59.28,5.17,2.5,10.27,5.13,15.3,7.88.05.03.1.05.15.08,1.59.87,3.18,1.76,4.76,2.65.16.09.33.19.49.28,1.51.86,3.01,1.73,4.51,2.61.14.08.28.16.41.24,8.26,4.89,16.32,10.12,24.15,15.68.02.01.04.03.06.04,1.56,1.1,3.1,2.22,4.64,3.35.02.01.04.03.06.04,9.35,6.87,18.35,14.22,26.98,22.01,0,0,.01.01.02.02,5.07,4.58,10,9.3,14.8,14.18.01.01.03.03.04.04,2.37,2.41,4.72,4.86,7.02,7.35.04.04.07.08.11.12,2.28,2.46,4.53,4.96,6.74,7.49.06.07.12.13.17.2,2.19,2.51,4.35,5.06,6.47,7.64.07.09.14.17.21.26,2.11,2.57,4.19,5.18,6.24,7.82.07.09.14.18.21.27,2.06,2.66,4.07,5.35,6.06,8.08.05.07.1.13.15.2,2.02,2.78,4.01,5.6,5.95,8.45-7.98-1.9-16.23-2.89-24.63-2.89-28.05,0-54.46,10.86-74.38,30.61-4.86,4.82-9.2,10.03-12.98,15.57-3.79-5.53-8.13-10.74-12.99-15.57-19.93-19.75-46.33-30.61-74.38-30.61s-52.84,10.67-71.69,28.11c-6.16,5.69-11.65,12.11-16.31,19.12Z"/>
  <path class="cls-18" d="m528.15,628.35h-32.91c.04,15.06.07,30.09.11,44.68h32.84c-.01-14.59-.03-29.62-.04-44.68Z"/>
  <path class="cls-18" d="m482.52,822.25c-7.25,0-13.15-5.91-13.15-13.16v-11.73c0-9.02-7.31-16.31-16.31-16.31s-16.31,7.3-16.31,16.31v11.73c0,25.25,20.53,45.79,45.78,45.79s45.79-20.54,45.79-45.79c0,0-.03-31.6-.07-76.3h-32.75c.11,44.71.19,76.3.19,76.3,0,7.25-5.9,13.16-13.16,13.16Z"/>
  <path class="cls-18" d="m528.08,557.99h-33.01c.01,4.78.02,9.62.04,14.52h32.99c0-4.9,0-9.74-.01-14.52Z"/>
  <path class="cls-14" d="m499.95,305.37c.07,3.63.18,7.25.31,10.88.29,5.51,4.71,10.07,10.34,10.34,6.01.3,11.12-4.33,11.41-10.34.13-2.97.24-5.96.33-8.93.37-13.43.21-26.84-.15-40.27-.42-16.3-1.18-32.96-2.6-49.2-1.03-10.92-2.15-21.84-4.09-32.76,0,0,0-.01,0-.02-1.17-.02-2.33-.02-3.5-.02-1.74,0-3.48.01-5.22.05,0,0,0,0,0,.01-1.93,10.92-3.07,21.82-4.1,32.74-2.3,29.09-3.42,58.35-2.73,87.52Z"/>
  <path class="cls-14" d="m343.05,303.86s0,.01-.01.02c-1.42,2.59-2.8,5.2-4.12,7.79-5.74,13.33,12.91,22.16,19.61,9.4,1.74-3.66,3.66-7.49,5.56-11.07.45-.84.9-1.69,1.36-2.52.01-.03.03-.05.04-.08,13.41-24.8,29.16-48.44,47.36-69.98,15.48-18.27,32.82-35.06,52.15-49.21h0s0,0,0,0c-1.96.26-3.91.55-5.85.85-.8.12-1.61.25-2.41.38-1.2.19-2.39.39-3.59.59-.83.14-1.66.28-2.49.43-1.62.29-3.24.59-4.86.9-.36.07-.73.14-1.09.21-1.98.39-3.96.8-5.93,1.22-.14.03-.27.05-.41.08,0,0,0,0,0,0-39.28,28.51-72.82,69.8-95.31,110.98Z"/>
  <path class="cls-14" d="m649.44,298.01h.01s0,0,0,0c4.25,7.49,8.29,15.11,12.08,22.82,6.61,13.11,25.5,4.23,19.73-9.17-.88-1.72-1.77-3.44-2.68-5.15,0,0,0-.01-.01-.02-15.6-29.43-35.71-56.4-58.75-80.4-12.08-12.59-25.25-24.18-39.46-34.31,0,0-.01,0-.02-.01-.23-.05-.47-.09-.71-.13-1.81-.36-3.63-.7-5.45-1.03-.5-.09-1-.17-1.51-.26-1.48-.26-2.96-.51-4.45-.76-.72-.12-1.44-.23-2.15-.34-1.3-.2-2.59-.4-3.89-.59-.71-.1-1.41-.2-2.12-.3-1.53-.21-3.07-.41-4.61-.61-.36-.04-.71-.1-1.07-.14h0c6.15,4.45,12.12,9.13,17.78,14.15,31.2,27.13,56.87,60.29,77.26,96.25Z"/>
  <path class="cls-5" d="m658.76,866.59c-6.58,3.32-13.28,6.44-20.11,9.33-40.12,16.97-82.72,25.58-126.64,25.58s-86.53-8.61-126.65-25.58c-6.83-2.89-13.53-6.01-20.11-9.33h-88.99c6.09,4.06,12.3,7.97,18.6,11.72.36.21.72.43,1.08.64,1.85,1.1,3.72,2.17,5.59,3.24.51.29,1.01.58,1.52.86,1.88,1.06,3.77,2.12,5.67,3.15.28.15.56.3.84.45,6.1,3.31,12.28,6.47,18.55,9.48.57.28,1.14.55,1.72.83,1.79.85,3.58,1.68,5.38,2.51.76.35,1.53.7,2.29,1.04,1.77.8,3.54,1.59,5.32,2.36.72.31,1.45.62,2.17.93,5.82,2.49,11.7,4.85,17.64,7.09.96.36,1.91.72,2.87,1.08,1.62.59,3.24,1.17,4.86,1.75,1.11.39,2.23.78,3.34,1.17,1.57.54,3.15,1.08,4.73,1.6,1.2.4,2.4.78,3.61,1.17,1.53.49,3.07.99,4.61,1.47,1.87.58,3.75,1.13,5.64,1.68,2,.59,4.01,1.16,6.02,1.71,1.47.41,2.93.82,4.41,1.21,1.39.37,2.79.73,4.19,1.08,1.49.38,2.99.75,4.49,1.12,1.36.33,2.72.66,4.08.97,1.64.38,3.28.75,4.93,1.11,1.23.27,2.46.55,3.69.81,2.75.58,5.52,1.14,8.29,1.67.9.17,1.81.32,2.72.49,2.04.37,4.09.74,6.14,1.09,1.17.2,2.35.38,3.53.57,1.83.29,3.66.57,5.5.84,1.19.17,2.37.34,3.56.51,1.96.27,3.92.52,5.89.76,1.03.13,2.06.26,3.1.38,2.96.34,5.92.66,8.89.94.42.04.85.07,1.27.11,2.61.24,5.23.45,7.85.64,1.02.07,2.05.14,3.07.2,2.07.14,4.14.26,6.22.36,1.1.06,2.19.11,3.29.16,2.13.09,4.26.16,6.39.22.97.03,1.95.06,2.92.08,3.08.07,6.17.11,9.27.11s6.18-.04,9.27-.11c.98-.02,1.95-.06,2.92-.08,2.13-.06,4.27-.13,6.39-.22,1.1-.05,2.2-.1,3.29-.16,2.08-.11,4.15-.23,6.22-.36,1.02-.07,2.05-.13,3.07-.2,2.62-.19,5.24-.41,7.85-.64.42-.04.85-.07,1.27-.11,2.97-.28,5.94-.6,8.89-.94,1.04-.12,2.07-.25,3.1-.38,1.97-.24,3.93-.49,5.89-.76,1.19-.16,2.38-.33,3.56-.51,1.84-.27,3.67-.55,5.5-.84,1.18-.19,2.36-.37,3.53-.57,2.05-.34,4.09-.71,6.13-1.08.91-.17,1.82-.32,2.72-.49,2.77-.53,5.54-1.08,8.29-1.67,1.23-.26,2.46-.54,3.69-.81,1.65-.36,3.29-.73,4.93-1.11,1.36-.32,2.73-.64,4.08-.98,1.5-.36,2.99-.74,4.48-1.12,1.4-.36,2.8-.71,4.19-1.08,1.47-.39,2.94-.8,4.41-1.21,2.02-.56,4.03-1.13,6.04-1.72,1.88-.55,3.76-1.1,5.62-1.68,1.54-.48,3.08-.97,4.61-1.47,1.2-.39,2.41-.77,3.61-1.17,1.58-.52,3.16-1.06,4.73-1.6,1.12-.38,2.23-.77,3.34-1.17,1.63-.57,3.25-1.15,4.86-1.75.96-.35,1.92-.72,2.87-1.08,5.95-2.23,11.83-4.6,17.64-7.09.72-.31,1.45-.61,2.17-.93,1.78-.77,3.55-1.56,5.32-2.36.76-.34,1.53-.69,2.29-1.04,1.8-.83,3.6-1.66,5.39-2.51.57-.27,1.14-.55,1.71-.82,6.27-3.02,12.46-6.18,18.56-9.49.28-.15.56-.3.83-.45,1.9-1.04,3.79-2.09,5.67-3.16.5-.29,1.01-.57,1.51-.86,1.87-1.07,3.74-2.15,5.59-3.25.36-.21.71-.43,1.07-.64,6.31-3.75,12.51-7.66,18.61-11.72h-89Z"/>
  <path class="cls-18" d="m495.5,732.78h280.97c16.5,0,29.88-13.38,29.88-29.88h0c0-4.86-1.17-9.44-3.22-13.5-4.93,9.72-15.01,16.38-26.65,16.38H247.11c-11.64,0-21.72-6.66-26.65-16.38-2.06,4.05-3.22,8.64-3.22,13.5h0c0,16.5,13.38,29.88,29.88,29.88h248.38Z"/>
  <path class="cls-13" d="m247.11,705.79h529.36c11.64,0,21.72-6.66,26.65-16.38-4.93-9.72-15.01-16.38-26.65-16.38H247.11c-11.64,0-21.72,6.66-26.65,16.38,4.93,9.72,15.01,16.38,26.65,16.38Zm456.92-23.36c5.03,0,9.11,4.08,9.11,9.11s-4.08,9.11-9.11,9.11-9.11-4.08-9.11-9.11,4.08-9.11,9.11-9.11Zm-385.83,0c5.03,0,9.11,4.08,9.11,9.11s-4.08,9.11-9.11,9.11-9.11-4.08-9.11-9.11,4.08-9.11,9.11-9.11Z"/>
  <path class="cls-18" d="m682.39,628.35h77.1c15.42,0,27.92-12.5,27.92-27.92h0c0-4.54-1.09-8.82-3.01-12.61-4.61,9.08-14.03,15.31-24.91,15.31h-495.39c-10.88,0-20.3-6.23-24.91-15.31-1.92,3.79-3.01,8.07-3.01,12.61h0c0,15.42,12.5,27.92,27.92,27.92h418.3Z"/>
  <path class="cls-13" d="m264.1,603.12h495.39c10.88,0,20.3-6.23,24.91-15.31-4.61-9.08-14.03-15.31-24.91-15.31h-495.39c-10.88,0-20.3,6.23-24.91,15.31,4.61,9.08,14.03,15.31,24.91,15.31Zm439.94-24.22c5.03,0,9.11,4.08,9.11,9.11s-4.08,9.11-9.11,9.11-9.11-4.08-9.11-9.11,4.08-9.11,9.11-9.11Zm-385.83,0c5.03,0,9.11,4.08,9.11,9.11s-4.08,9.11-9.11,9.11-9.11-4.08-9.11-9.11,4.08-9.11,9.11-9.11Z"/>
  <path class="cls-18" d="m682.39,557.99h77.1c15.42,0,27.92-12.5,27.92-27.92,0-4.54-1.09-8.82-3.01-12.61-4.61,9.08-14.03,15.31-24.91,15.31h-495.39c-10.88,0-20.3-6.23-24.91-15.31-1.92,3.79-3.01,8.07-3.01,12.61,0,15.42,12.5,27.92,27.92,27.92h418.3Z"/>
  <path class="cls-13" d="m264.1,532.77h495.39c10.88,0,20.3-6.23,24.91-15.31-4.61-9.08-14.03-15.31-24.91-15.31h-495.39c-10.88,0-20.3,6.23-24.91,15.31,4.61,9.08,14.03,15.31,24.91,15.31Zm439.94-24.24c5.03,0,9.11,4.08,9.11,9.11s-4.08,9.11-9.11,9.11-9.11-4.08-9.11-9.11,4.08-9.11,9.11-9.11Zm-385.83,0c5.03,0,9.11,4.08,9.11,9.11s-4.08,9.11-9.11,9.11-9.11-4.08-9.11-9.11,4.08-9.11,9.11-9.11Z"/>
  <circle class="cls-18" cx="704.03" cy="691.55" r="9.11"/>
  <circle class="cls-18" cx="704.03" cy="588.01" r="9.11"/>
  <circle class="cls-18" cx="704.03" cy="517.64" r="9.11"/>
  <circle class="cls-18" cx="318.2" cy="691.55" r="9.11"/>
  <circle class="cls-18" cx="318.2" cy="588.01" r="9.11"/>
  <circle class="cls-18" cx="318.2" cy="517.64" r="9.11"/>
  <path class="cls-18" d="m857.31,534.08l-19.15,39.51c-6.88,14.2,3.46,30.85,20.33,31.75.5.03,1.01.04,1.51.04s1.01-.01,1.51-.04c16.87-.9,27.21-17.55,20.33-31.75l-19.15-39.51c-1.04-2.15-4.35-2.15-5.39,0Z"/>
  <path class="cls-18" d="m162.48,605.33c.5.03,1.01.04,1.51.04s1.01-.01,1.51-.04c16.87-.9,27.21-17.55,20.33-31.75l-19.15-39.51c-1.04-2.15-4.35-2.15-5.39,0l-19.15,39.51c-6.88,14.2,3.46,30.85,20.33,31.75Z"/>
</svg>